<svg xmlns="http://www.w3.org/2000/svg" viewBox="0 0 838.8 185.5"><path fill="#211a15" d="M730.4 0c17.6.9 34.6.2 50.8 4.5 30.5 7.9 48.9 27.9 54.8 58.8 4.1 21.5 3.8 43.2-1.1 64.5-7.5 32.3-34.1 53.2-71 56.3-24 2-48 1.8-71.9-.9-34.5-3.9-60.5-29.8-64.8-64.3-2.4-19.5-2.9-39.1.9-58.4 6.8-34 33-55.7 69.4-58.7C708.7.9 720 .6 730.4 0zm37.3 91.5s-.1 0 0 0c-.1-7.8.5-15.6-.2-23.3-1-11.9-9.2-21.3-20-23.8-6.9-1.5-14-2.2-21.1-1.6-20.1 1.7-29.9 11.3-31 31.4-.7 13.8-1.3 27.8.8 41.6 2.4 15.5 13.4 25 29.1 25.2 4 .1 8 0 12 0 17.8-.1 28.7-9.8 30.2-27.7.7-7.1.2-14.5.2-21.8zm-385 91.5c-17 0-33.9.1-50.9 0-22.2-.1-36.7-14.6-36.8-36.7-.1-35.1-.1-70.2 0-105.3 0-22.7 14.8-37.3 37.8-37.4 33.7-.1 67.4 0 101.1 0 11.4 0 13.5 2.2 13.6 13.7 0 5.7.1 11.3 0 17-.1 9.6-2.7 12.3-12.1 12.3-19.3.1-38.6 0-57.9 0-13.4 0-15.8 2.4-15.8 15.5 0 1.2.1 2.4 0 3.5-.8 6.1 1.5 8.3 7.9 8 15.1-.7 30.1-.7 45.2-.9 10.8-.1 13.6 2.8 13.7 13.9v12c-.1 11.6-2.4 13.9-14.2 13.9-15.1 0-30.2.2-45.2-.1-5.4-.1-8 1.6-7.3 7.3.3 2.3 0 4.7.1 7.1.4 8.5 3.7 11.8 12.4 11.8 20.3.1 40.5 0 60.8 0 9.6 0 12.5 2.9 12.6 12.6.1 6.4.1 12.7 0 19.1-.1 10.1-2.5 12.6-12.4 12.7h-52.6zM127.4 3.6c8.2 0 16.5.1 24.7 0 6.5-.1 10.2 2.5 11.8 9.4 8.5 36.9 17.5 73.6 26.3 110.4.3 1.1.4 2.3.8 3.4 1 3.2.6 7.9 5.6 7.7 4.1-.2 4.2-4.3 5-7.5 9.4-38.1 18.9-76.2 28-114.4 1.6-6.5 5-9.1 11.3-9 8 .1 16 0 24 0 11 .1 14 3.9 11.3 14.6-7.6 30.3-15.3 60.6-23 90.9-3.9 15.5-7.7 31-11.8 46.5-4.9 18.4-16.9 27.4-36 27.5-14.1.1-28.3.1-42.4 0-17.8-.1-30.6-9.7-35.1-26.9-12.1-46.4-24-92.8-36-139.2-2.3-8.9 1-13.1 10-13.2 8.5-.3 17-.2 25.5-.2zm442.3 181.1c-17.8-.1-35.9 1.2-53.3-3.6-27.8-7.7-45-26-52.1-53.9-5.6-22.1-5.5-44.3-.7-66.4C470.4 29.2 493 7.9 525.3 3c26-3.9 52.1-3.5 78.2-.4 8.5 1 10.2 3.3 10.4 12 .1 7.1.1 14.1 0 21.2-.1 9.2-2.9 12.1-11.9 11.5-14.1-1-28.2-.9-42.3 0-13.9 1-23.7 9.3-26 23.3-2.4 14-2.4 28.2-.4 42.2 2.5 17.7 11.8 25.7 29.8 26.9 13.2.9 26.3 1.4 39.5.4 8.4-.6 11.2 2.3 11.4 10.5.2 8 .2 16 0 24-.1 6.5-3.3 10-10.2 9.9-11.5 0-22.8.2-34.1.2zM71.1 94.4V170c0 11.3-1.7 12.9-13.2 13-15.3 0-30.6.1-45.9 0-8.9-.1-12-3.1-12-12V15.6c0-8.7 3.2-11.9 11.9-12 15.8-.1 31.6-.1 47.3 0C68.5 3.6 71 6.1 71 15.3c.2 26.4.1 52.8.1 79.1z"/></svg>