<?xml version="1.0" encoding="utf-8"?>
<!-- Generator: Adobe Illustrator 25.1.0, SVG Export Plug-In . SVG Version: 6.00 Build 0)  -->
<svg version="1.1" id="Layer_1" xmlns="http://www.w3.org/2000/svg" xmlns:xlink="http://www.w3.org/1999/xlink" x="0px" y="0px"
	 viewBox="0 0 347.4 214.5" style="enable-background:new 0 0 347.4 214.5;" xml:space="preserve">
<style type="text/css">
	.st0{fill:#FFFFFF;}
</style>
<path d="M223.5,59.4H50.8c-11.1,0-20.2-9-20.2-20.2v0c0-11.1,9-20.2,20.2-20.2h172.6c11.1,0,20.2,9,20.2,20.2v0
	C243.6,50.4,234.6,59.4,223.5,59.4z"/>
<g>
	<path class="st0" d="M50.5,30.8h0.1c1,0,1.8,0.9,2.4,2.6l5.4,11c3.9-8.4,6.1-12.7,6.4-13.1c0.4-0.3,0.9-0.5,1.3-0.5
		c1.2,0.2,1.9,0.8,1.9,1.8v0.1c0,0.3-1,2.6-3.1,6.8L59.7,50c-0.5,0.4-1,0.6-1.4,0.6h-0.1c-1,0-1.9-1-2.6-2.9c-4.4-9-6.7-13.9-7-14.7
		v-0.5C48.9,31.4,49.5,30.8,50.5,30.8z"/>
	<path class="st0" d="M74.5,25.2c1.2,0.3,1.8,0.9,1.8,1.7v0.4c0,1-0.6,1.5-1.9,1.7c-0.9,0-1.5-0.6-1.8-1.9
		C72.8,25.8,73.4,25.2,74.5,25.2z M74.5,30.8c1.2,0.3,1.8,0.9,1.8,1.7v16.3c0,1-0.6,1.6-1.8,1.8h-0.1c-1,0-1.6-0.6-1.8-1.9V32.9
		C72.7,31.5,73.3,30.8,74.5,30.8z"/>
	<path class="st0" d="M85.6,24.3h0.3c1.1,0.2,1.7,0.8,1.7,1.6v5.5h2.2l0.6-0.1c0.9,0,1.5,0.6,1.8,1.8c0,0.9-0.5,1.6-1.6,1.9L89.5,35
		h-1.9v9.3c0,1.5,0.4,2.3,1.2,2.6l1.4,0.1H91c0.9,0,1.4,0.6,1.7,1.8v0.2c-0.2,1.2-0.8,1.8-1.8,1.8h-1.4c-2.4,0-4.1-1.3-5.2-3.8
		c-0.2-0.6-0.3-1.4-0.3-2.2V35h-0.8L82,35c-1.1-0.4-1.6-1-1.6-1.9c0.2-1.2,0.6-1.8,1.2-1.8v-0.1l1.3,0.1h1.1v-5.1
		C84,24.9,84.6,24.3,85.6,24.3z"/>
	<path class="st0" d="M110.8,48.6c-1.5,1.4-3.4,2.1-5.9,2.1h-0.5c-3.3,0-6.1-1.7-8.4-5c-0.8-1.6-1.2-3.3-1.2-4.9
		c0-3.7,1.8-6.6,5.4-8.7c1.5-0.7,3-1.1,4.5-1.1c3.7,0,6.7,1.8,8.8,5.5c0.7,1.5,1,3,1,4.6v7.9c0,1-0.6,1.6-1.8,1.8h-0.1
		c-0.8,0-1.4-0.5-1.8-1.5V49L110.8,48.6z M98.6,40.7v0.2c0,2.5,1.2,4.4,3.7,5.6c0.8,0.3,1.5,0.4,2.1,0.4h0.5c2.1,0,3.8-1,5.1-3.1
		c0.5-1,0.7-1.9,0.7-2.8v-0.3c0-2.4-1.2-4.2-3.5-5.5c-0.8-0.4-1.7-0.5-2.5-0.5h-0.1c-2.5,0-4.4,1.3-5.7,3.9
		C98.7,39.4,98.6,40.1,98.6,40.7z"/>
	<path class="st0" d="M121.7,31.2c0.9,0,1.5,0.4,1.7,1.2c1-0.8,2.4-1.2,4.3-1.2c2.5,0,4.5,0.9,6,2.8c0.5-1,2-1.8,4.4-2.5l1.6-0.2
		c3,0,5.4,1.4,7.1,4.3c0.6,1.2,0.9,2.4,0.9,3.5v10c0,0.9-0.6,1.4-1.8,1.7h-0.2c-1.2-0.2-1.8-0.8-1.8-1.8v-9.7c0-1.9-1-3.3-3.1-4
		l-0.8-0.1h-0.6c-1.6,0-2.9,0.9-3.7,2.8c-0.1,0.4-0.2,0.7-0.2,1v10c-0.2,1.2-0.8,1.8-1.8,1.8h-0.1c-1.2-0.2-1.8-0.8-1.8-1.7v-8.2
		c0-2.1-0.3-3.4-0.8-3.9c-0.9-1.2-2-1.7-3.3-1.7h-0.2c-1.9,0-3.2,1-3.9,3c-0.1,0.5-0.2,1.1-0.2,2v8.9c0,1-0.6,1.5-1.8,1.7h-0.1
		c-1,0-1.6-0.6-1.8-1.8V33.3C119.8,31.9,120.5,31.2,121.7,31.2z"/>
	<path class="st0" d="M155.6,25.2c1.2,0.3,1.8,0.9,1.8,1.7v0.4c0,1-0.6,1.5-1.9,1.7c-0.9,0-1.5-0.6-1.8-1.9
		C153.9,25.8,154.6,25.2,155.6,25.2z M155.6,30.8c1.2,0.3,1.8,0.9,1.8,1.7v16.3c0,1-0.6,1.6-1.8,1.8h-0.1c-1,0-1.6-0.6-1.8-1.9V32.9
		C153.8,31.5,154.5,30.8,155.6,30.8z"/>
	<path class="st0" d="M164.9,30.9c1.2,0.3,1.8,0.9,1.8,1.7v0.3c1.5-1.3,3.4-2,5.9-2c2.7,0,5.1,1.1,7.2,3.4c1.5,1.9,2.3,3.9,2.3,6V49
		c0,0.9-0.6,1.5-1.8,1.7h-0.2c-1.2-0.2-1.8-0.8-1.8-1.8v-7.6c0-3.2-1.3-5.2-4-6.2c-0.7-0.2-1.2-0.3-1.7-0.3h-0.2
		c-2.2,0-4,1.2-5.2,3.5c-0.3,0.7-0.5,1.9-0.5,3.5v7.1c0,1-0.6,1.6-1.8,1.8h-0.1c-1,0-1.6-0.6-1.8-1.9V33
		C163.1,31.6,163.7,30.9,164.9,30.9z"/>
	<path class="st0" d="M201.1,48.6c-1.5,1.4-3.4,2.1-5.9,2.1h-0.5c-3.3,0-6.1-1.7-8.4-5c-0.8-1.6-1.2-3.3-1.2-4.9
		c0-3.7,1.8-6.6,5.4-8.7c1.5-0.7,3-1.1,4.5-1.1c3.7,0,6.7,1.8,8.8,5.5c0.7,1.5,1,3,1,4.6v7.9c0,1-0.6,1.6-1.8,1.8h-0.1
		c-0.8,0-1.4-0.5-1.8-1.5V49L201.1,48.6z M188.9,40.7v0.2c0,2.5,1.2,4.4,3.7,5.6c0.8,0.3,1.5,0.4,2.1,0.4h0.5c2.1,0,3.8-1,5.1-3.1
		c0.5-1,0.7-1.9,0.7-2.8v-0.3c0-2.4-1.2-4.2-3.5-5.5c-0.8-0.4-1.7-0.5-2.5-0.5h-0.1c-2.5,0-4.4,1.3-5.7,3.9
		C189,39.4,188.9,40.1,188.9,40.7z"/>
	<path class="st0" d="M221.7,44.2c0-0.2-0.3-0.4-0.7-0.4c-6.1-1.4-9.4-2.2-9.8-2.6c-1.2-0.9-1.9-2.1-1.9-3.5c0-1.9,1.3-3.7,4-5.4
		c1.5-0.8,2.9-1.1,4.3-1.1c3.3,0,6,1.5,7.9,4.6l0.1,0.7v0.1c0,1-0.6,1.6-1.9,1.8c-0.8,0-1.6-0.6-2.3-1.7c-1.1-1.1-2.4-1.6-3.8-1.6
		c-1.9,0-3.3,0.9-4.4,2.6l0,0.2c0,0.2,0.5,0.4,1.6,0.5c5.2,1.3,8.1,2,8.6,2.2c1.5,1,2.2,2.2,2.2,3.7v0.1c0,2.1-1.5,3.9-4.4,5.6
		c-1.3,0.6-2.6,0.9-4,0.9c-2.9,0-5.4-1.4-7.4-4.1c-0.3-0.4-0.4-0.7-0.4-1.1v-0.4c0-1,0.7-1.5,2-1.7c0.6,0,1.4,0.6,2.3,1.9
		c1.1,1,2.3,1.5,3.7,1.5c1.7,0,3.1-0.8,4.2-2.4L221.7,44.2z"/>
</g>
<g>
	<path d="M127.8,95.2L118,94c0,7.9-5.7,15-14.4,14.9C95,108.8,89,101.9,89,94c0-7.9,6.5-14.3,14.5-14.3c2.9,0,6,0.8,8.3,2.6
		L89.6,94.7l4.3,8.8l32.5-17.9c-3.5-9.1-12.4-15.6-22.8-15.6c-13.4,0-24.4,10.8-24.4,24c0,13.2,11,24,24.4,24
		C116.5,118.1,127.2,107.9,127.8,95.2z"/>
	<path d="M117.7,165.8c-0.3,5.1-4.6,9.5-9.8,9.5c-5.1,0-9.5-4.4-9.8-9.5v-28.2h-11v28.2c0.6,11.1,9.7,20.1,20.8,20.1
		c11,0,20.2-9,20.8-20.1v-28.2h-11V165.8z"/>
	<path d="M43.1,90c0.3-5.1,4.6-9.5,9.8-9.5c5.1,0,9.5,4.4,9.8,9.5v28.2h11V90c-0.6-11.1-9.7-20-20.8-20c-11,0-20.2,9-20.8,20v28.2
		h11V90z"/>
	<path d="M157.8,118.2L157.8,118.2c13.5,0,24.5-10.8,24.5-24.1c0-13.3-11-24.1-24.5-24.1h0c-13.5,0-24.5,10.8-24.5,24.1
		C133.3,107.3,144.3,118.2,157.8,118.2z M157.8,79.5L157.8,79.5c8.1,0,14.7,6.5,14.7,14.5c0,8-6.6,14.5-14.7,14.5h0
		c-8.1,0-14.7-6.5-14.7-14.5C143.1,86.1,149.7,79.5,157.8,79.5z"/>
	<path d="M80.4,161.1c0-13.1-10.8-23.7-24.1-23.7c-13.2,0-24.1,10.6-24.1,23.7c0,13.1,10.8,23.7,24.1,23.7c4.5,0,8.7-1.2,12.3-3.3
		l0-16.3c-1.8,5.1-6.6,8.7-12.3,8.7c-7.2,0-13-5.8-13-12.8c0-7.1,5.8-12.8,13-12.8c7.2,0,13,5.8,13,12.8V181v23h11v-41.4h0
		C80.4,162.1,80.4,161.6,80.4,161.1z"/>
	<path d="M251.8,161.8c0-7.1,6-12.9,13.3-13.7h9v-10.5h-9c-13.6,0.7-24.5,11.3-24.5,24.1c0,13.3,11.7,24.1,26,24.1h7.4v-10.5h-7.4
		C258.5,175.4,251.8,169.4,251.8,161.8z"/>
	<path d="M228.2,123.2c-3.1,0-5.7,2.5-5.7,5.6c0,3.1,2.6,5.6,5.7,5.6c3.1,0,5.7-2.5,5.7-5.6C233.9,125.7,231.3,123.2,228.2,123.2z"
		/>
	<path d="M329.1,161.1c0-13.1-10.8-23.7-24.1-23.7c-13.3,0-24.1,10.6-24.1,23.7c0,13.1,10.8,23.7,24.1,23.7c4.5,0,8.7-1.2,12.3-3.3
		l0-16.3c-1.7,5.1-6.6,8.7-12.3,8.7c-7.2,0-13-5.8-13-12.8c0-7.1,5.8-12.8,13-12.8c7.2,0,13,5.8,13,12.8V181v4.9h11v-23.3h0
		C329.1,162.1,329.1,161.6,329.1,161.1z"/>
	<rect x="222.5" y="137.6" width="11.3" height="48.2"/>
	<rect x="135.6" y="137.6" width="11.3" height="48.2"/>
	<path d="M199,137.6c-6,0-11.4,3.2-14.3,8c-2.9-4.8-8.3-8-14.3-8c-5,0-9.6,2.2-12.6,5.7c-2.5,2.9-4.1,6.6-4.1,10.7v31.8h4.1h7.3
		v-31.8c0-3.8,3.1-6.9,7-6.9c3.9,0,7,3.1,7,6.9v31.8h11.3v-31.8c0-3.8,3.1-6.9,7-6.9c3.9,0,7,3.1,7,6.9l0,31.8h11.3v-31.8
		C215.7,145,208.2,137.6,199,137.6z"/>
	<polygon points="146.1,134.3 157.3,122.3 144.6,122.3 136.4,134.3 	"/>
</g>
</svg>
