<?xml version="1.0" encoding="utf-8"?>
<!-- Generator: Adobe Illustrator 25.1.0, SVG Export Plug-In . SVG Version: 6.00 Build 0)  -->
<svg version="1.1" id="Camada_1" xmlns="http://www.w3.org/2000/svg" xmlns:xlink="http://www.w3.org/1999/xlink" x="0px" y="0px"
	 viewBox="0 0 1080 435.1" style="enable-background:new 0 0 1080 435.1;" xml:space="preserve">
<style type="text/css">
	.st0{fill:#111111;}
</style>
<g>
	<g>
		<path class="st0" d="M238.8,115.5l-8.3-2.8c-3.7-1.3-5.1-0.6-6.8,3.1c-3.6,9.1-11.4,13.7-23.6,13.7c-15.9,0-24.7-7.5-24.7-21V75.9
			c0-13.5,8.8-20.9,24.7-20.9c12.3,0,20.2,4.6,23.6,13.5c1.4,3.5,2.9,4.3,6.6,3.1l8.5-2.8c3.4-1.2,4.5-3.4,3.2-6.5
			c-6-16.3-20.1-24.6-42-24.6c-28.2,0-44.1,14.6-44.1,38.2v32.2c0,24,15.9,38.4,44.1,38.4c22.1,0,36.1-8.2,42.1-24.7
			C243.2,118.8,242.2,116.6,238.8,115.5z"/>
		<path class="st0" d="M302,66c-15.7,0-26.4,5.1-32,15.3c-1.7,2.9-0.8,5.1,2.6,6.6l6.2,2.5c3.6,1.2,4.3,0.9,6.6-2.2
			c3.2-4.7,8.6-7.1,16.2-7.1c11.1,0,15.4,5,15.4,14.6v4.1c-8.8-0.4-13.7-0.7-14.8-0.7c-25.2,0-35,6.2-35,23.7
			c0,8.1,2.5,14.1,7.4,17.9c4.9,4,13.9,5.9,27,5.9c12.3,0,21.6-1.3,27.8-3.8c4.3-1.8,5.6-3.2,5.6-8.4V96.3
			C335.1,76.2,324.1,66,302,66z M317.2,129.3c0,1-0.6,1.6-1.7,2.1c-3.7,0.7-8.8,1.2-15.4,1.2c-11.3,0-14.5-3.2-14.5-9.9
			c0-6.5,3.7-9.6,14.8-9.6c0.5,0,6,0.3,16.8,0.7V129.3z"/>
		<path class="st0" d="M406.4,66h-4.9c-11.6,0.3-21.1,1.8-28.7,4.4c-4.9,1.9-6,3.7-6,8.4v61c0,3.4,1.2,4.6,4.8,4.6h8.5
			c3.6,0,4.6-1.2,4.6-4.6V85.2c0-1,0.5-1.6,1.5-1.8c4-1.2,9-1.8,14.7-1.8h5.6c3.6,0,4.8-1.2,4.8-4.6v-6.5
			C411.2,67.1,409.9,66,406.4,66z"/>
		<path class="st0" d="M480,68.3h-17.6V55c0-3.4-1.2-4.4-4.8-4.4h-8.3c-3.6,0-4.8,1-4.8,4.4v13.2h-10.7c-3.6,0-4.6,1-4.6,4.4v6.8
			c0,3.4,1.1,4.6,4.6,4.6h10.7v30.1c0,12.5,2.6,21.2,8,25.9c5.2,4.7,14.4,6.9,27.3,6.5c3.7-0.1,4.9-1.2,4.9-4.7V135
			c0-3.5-1.2-4.6-4.9-4.6c-6.8,0-11.4-1-13.7-3.2c-2.5-2.2-3.7-6.8-3.7-13.7V84H480c3.6,0,4.8-1.2,4.8-4.6v-6.8
			C484.8,69.3,483.6,68.3,480,68.3z"/>
		<path class="st0" d="M521.2,57.2h5.1c1.9,0,2.8-0.9,2.8-2.8c0-3.7,1.2-5.6,3.7-5.6c2,0,4.9,1.3,8.8,4.1c3.9,2.8,7.6,4.3,11.1,4.3
			c9.1,0,13.1-4.7,13.1-16.5c0-1.9-0.9-2.8-2.9-2.8H558c-2,0-2.9,0.9-2.9,2.8c0,3.7-1.2,5.6-3.6,5.6c-1.9,0-4.8-1.5-8.6-4.3
			C539,39.3,535,38,531.1,38c-8.5,0-12.8,4.7-12.8,16.5C518.3,56.3,519.2,57.2,521.2,57.2z"/>
		<path class="st0" d="M542.9,66c-15.7,0-26.4,5.1-32,15.3c-1.7,2.9-0.8,5.1,2.6,6.6l6.2,2.5c3.6,1.2,4.3,0.9,6.6-2.2
			c3.2-4.7,8.6-7.1,16.2-7.1c11.1,0,15.4,5,15.4,14.6v4.1c-8.8-0.4-13.7-0.7-14.8-0.7c-25.2,0-35,6.2-35,23.7
			c0,8.1,2.5,14.1,7.4,17.9c4.9,4,13.9,5.9,27,5.9c12.3,0,21.6-1.3,27.8-3.8c4.3-1.8,5.6-3.2,5.6-8.4V96.3
			C575.9,76.2,564.9,66,542.9,66z M558,129.3c0,1-0.6,1.6-1.7,2.1c-3.7,0.7-8.8,1.2-15.4,1.2c-11.3,0-14.5-3.2-14.5-9.9
			c0-6.5,3.7-9.6,14.8-9.6c0.5,0,6,0.3,16.8,0.7V129.3z"/>
		<path class="st0" d="M640.7,66c-22.7,0-35.5,11-35.5,29.4v21.8c0,18.4,12.8,29.4,35.5,29.4c22.8,0,35.7-11,35.7-29.4V95.5
			C676.4,77.1,663.6,66,640.7,66z M658.5,117.2c0,8.8-6.5,14-17.8,14c-11.3,0-17.6-5.1-17.6-14V95.5c0-9,6.3-14,17.6-14
			c11.3,0,17.8,5,17.8,14V117.2z"/>
		<path class="st0" d="M817.6,35.6h-8.5c-3.6,0-4.6,1.2-4.6,4.6V68c-7.6-1.3-13.6-1.9-18.4-1.9c-21.5,0-32.3,10.7-32.3,30.7v20.1
			c0,19.9,11.1,29.7,33.5,29.7c10.5,0,20.1-1.6,28.9-4.7c4.9-1.9,6.2-3.4,6.2-8.1V40.2C822.4,36.8,821.2,35.6,817.6,35.6z
			 M804.5,127.8c0,0.7-0.5,1.3-1.2,1.6c-4,1-8.8,1.6-14.2,1.6c-11.6,0-17.3-4.9-17.3-14.7V97.2c0-10.4,5.9-15.6,17.8-15.6
			c3.9,0,8.8,0.6,15,1.9V127.8z"/>
		<path class="st0" d="M917.2,111.8c4.6,0,6.9-2.1,6.9-6.3v-9c0-17.8-12.2-30.4-35.7-30.4c-23.3,0-35.8,11.2-35.8,31.8v17.4
			c0,19.3,11.4,31.5,35.5,31.5c16.2,0,27.3-4.7,33.3-14.1c2.3-3.4,1.7-5.7-1.9-7.4l-5.4-2.8c-3.7-1.9-5.4-1.6-7.9,1.8
			c-3.6,5.1-9.6,7.8-18.2,7.8c-11.3,0-17.6-5.1-17.6-14.7v-5.4H917.2z M870.6,95.5c0-9.6,6.3-15,17.9-15c11.7,0,17.8,5.4,17.8,15
			v3.2h-35.7V95.5z"/>
	</g>
	<g>
		<path class="st0" d="M520.3,194.2c-30.5,0-54,5.7-70.8,11c0,24.3,0,127.8,0,142.8c0,29.4,17,51.6,79.8,51.6
			c60.2,0,102.2-48.9,102.2-102.7C631.6,242.5,590.8,194.2,520.3,194.2z M529.4,345.4c-24.1,0.6-27.1-3.9-27.1-17.1
			c0-10.7,0.2-77.1,0.2-77.1c5.9-1.7,12.4-3.8,21.1-3.8c35.5,0,54.3,23.9,54.3,48.5C577.8,323.7,555.9,344.8,529.4,345.4z"/>
		<path class="st0" d="M976.8,275.5c-22.6-5.7-44-8-45.4-17.6c-0.9-6.6,7-12.3,23.4-12.3c52.5,0,84.6,21.8,84.6,21.8s0-24.1,0-32.2
			c0-19.6-21.4-40.9-76-40.9c-61.2,0-86.2,30.4-86.2,64.4c0,38.1,28.2,51,64.8,58.7c41.5,8.8,49,12.5,49,19.3
			c0,9.3-13.9,11.5-23.3,11.5c-52.2,0-84.6-21.8-84.6-21.8s-0.1,24.1-0.1,32.2c0,19.6,19.9,40.9,73.5,40.9c52,0,78.1-22,85.6-46.9
			C1061.2,288.7,991.8,279.3,976.8,275.5z"/>
		<path class="st0" d="M322.4,194.1c-56.7,0-102.7,46-102.7,102.7c0,56.7,46,102.7,102.7,102.7s102.7-46,102.7-102.7
			C425.1,240,379.1,194.1,322.4,194.1z M322.4,345.9c-27.1,0-49.1-22-49.1-49.1s22-49.1,49.1-49.1c27.1,0,49.1,22,49.1,49.1
			S349.5,345.9,322.4,345.9z"/>
		<path class="st0" d="M756.2,194.1c-56.7,0-102.7,46-102.7,102.7c0,56.7,46,102.7,102.7,102.7c56.7,0,102.7-46,102.7-102.7
			C858.9,240,812.9,194.1,756.2,194.1z M756.2,345.9c-27.1,0-49.1-22-49.1-49.1s22-49.1,49.1-49.1c27.1,0,49.1,22,49.1,49.1
			S783.3,345.9,756.2,345.9z"/>
		<path class="st0" d="M220,183.1c0,0-125.8,15.4-167.8,20.6c-9.9,1.2-17.5,9.7-17.5,19.9c0,5.8,0,23.4,0,23.4h65.1v123
			c0,20.4,13,27.7,29.6,27.7h24.2V247c0,0,27.2,0,36.2,0c16.6,0,30.1-13.5,30.1-30.1C220,209.3,220,183.1,220,183.1z"/>
	</g>
</g>
</svg>
