<?xml version="1.0" encoding="utf-8"?>
<!-- Generator: Adobe Illustrator 25.1.0, SVG Export Plug-In . SVG Version: 6.00 Build 0)  -->
<svg version="1.1" id="Layer_1" xmlns="http://www.w3.org/2000/svg" xmlns:xlink="http://www.w3.org/1999/xlink" x="0px" y="0px"
	 viewBox="0 0 144.7 131" style="enable-background:new 0 0 144.7 131;" xml:space="preserve">
<style type="text/css">
	.st0{fill:#FFFFFF;}
</style>
<path d="M112.6,13l-0.3-0.2h-0.3H33L32.7,13c-15.9,9.6-25,23.9-25,39.4c0,27.6,29.1,50,64.9,50c35.8,0,64.9-22.4,64.9-50
	C137.6,37,128.5,22.6,112.6,13"/>
<path class="st0" d="M72.7,101.4c-34.9,0-63.3-21.9-63.3-48.9c0-14.9,8.7-28.8,23.9-38.2h78.8c15.2,9.4,23.9,23.3,23.9,38.2
	C135.9,79.5,107.5,101.4,72.7,101.4"/>
<path d="M109.6,16.4l-0.2-0.1h-0.3H36h-0.3l-0.2,0.1c-14.7,9-23.2,22.5-23.2,37.1c0,26,27,47.1,60.3,47.1
	c33.2,0,60.3-21.1,60.3-47.1C132.8,38.9,124.4,25.4,109.6,16.4"/>
<path class="st0" d="M65.6,54.2L60,67.7c0,0-7.1-19.6-9-28.9h-5.6c1.5,4,2.8,7.6,4,10.7c-1.1-2.7-3.4-4.1-6.9-4.1
	c-5.7,0-9.5,4.2-9.5,10.7c0,6,3.4,9.6,9,9.6c1.7,0,3.6-0.4,5.4-0.8l0.1,0l0.5-3.5l-0.4,0.2c-1.7,0.7-3.2,1.2-5.2,1.2
	c-1.6,0-2.9-0.5-3.8-1.6c-1.4-1.6-1.8-4-1.6-5.8h12.9l0-0.1c0-0.8,0.1-1.6,0.1-1.9c0-1.2-0.2-2.3-0.5-3.3C54,62.1,56,67.8,56.7,71
	h5.8c1.1-3.2,4.4-11.4,10.3-24.3h-4.4C67.7,48.9,66.8,51.4,65.6,54.2 M37.3,52.5c0.5-2.5,2.4-4,5-4c2.6,0,4,1.4,4.1,4H37.3z"/>
<path class="st0" d="M75.2,48c0,7.8-0.4,15.4-1.1,23h4.6v-1.4c0-7.8,0.4-15.4,1.1-23h-4.6V48z"/>
<path class="st0" d="M91.1,41.8L87,42.6l-0.1,4.1h-3.5l-0.1,3.1h3.4l-0.6,13.5c0,1.3-0.1,2.2-0.1,3c0,3.7,1.9,5.5,6.1,5.5
	c1.6,0,3.4-0.2,5.3-0.5l0.6-3.6c-1.3,0.3-2.6,0.6-4.1,0.6c-2.8,0-3.8-0.8-3.8-3.2c0-0.2,0.1-0.5,0.1-1l0.6-14.3H98l0.1-3.1h-7.2
	L91.1,41.8z"/>
<path class="st0" d="M120.7,46.6c-1,2.7-1.8,4.6-2.3,5.9l-4.5,10.2c-0.6,1.4-1.2,2.7-1.6,4c-0.2-1.4-0.6-2.6-1-3.7l-5.6-16.3h-4.8
	c1.6,4.1,2.5,6.4,2.7,7.1l6.4,16.9l-1.9,4.3c-1.2,2.6-3,3.9-5.6,3.9c-1.2,0-2.5-0.3-4-0.7l0.2,3.4c1.4,0.3,2.9,0.5,4.4,0.5
	c4.4,0,6.5-1.8,8.6-6.2l13.4-29.2H120.7z"/>
<polygon class="st0" points="75.7,42.7 80,42.7 80.1,38.6 75.8,38.6 "/>
<path class="st0" d="M29.7,66.9c0-4.3,0-7.4,0.1-9L30.3,44c0.1-3.1,0.4-6.3,0.8-9.4h-5.2c-0.2,15.6-0.9,27.7-1.8,36.4h22.5l0.6-4.2
	c-3.3,0.3-7.8,0.4-11.4,0.4C33.9,67.2,31.7,67.1,29.7,66.9"/>
<path d="M14,118.6c0.1,0,0.2,0,0.2,0c0.1,0,0.1-0.1,0.2-0.1c0.1,0,0.1-0.1,0.2-0.2c0-0.1,0.1-0.2,0.2-0.3l2.6-4.7
	c0-0.1,0-0.1,0.1-0.2c0,0,0-0.1,0-0.2c0-0.1,0-0.2,0-0.2c0,0-0.1-0.1-0.2-0.1l0-0.1c0.1,0,0.2,0,0.4,0c0.1,0,0.2,0,0.4,0
	c0.1,0,0.2,0,0.3,0c0.1,0,0.2,0,0.3,0c0,0.1,0,0.3,0,0.5c0,0.2,0.1,0.4,0.1,0.6l0.9,4.3c0,0.2,0.1,0.3,0.1,0.4
	c0,0.1,0.1,0.2,0.1,0.2c0,0.1,0.1,0.1,0.1,0.1c0,0,0.1,0,0.2,0.1l0,0.1c-0.1,0-0.3,0-0.4,0c-0.1,0-0.2,0-0.4,0c-0.2,0-0.4,0-0.6,0
	c-0.2,0-0.4,0-0.6,0l0-0.1c0.2,0,0.3,0,0.4-0.1c0.1,0,0.1-0.1,0.1-0.2c0-0.1,0-0.2,0-0.3c0-0.1,0-0.3-0.1-0.6l-0.2-1.1h-2.1
	l-0.7,1.3c-0.1,0.1-0.1,0.2-0.2,0.4c0,0.1-0.1,0.2-0.1,0.3c0,0.1,0,0.1,0.1,0.2c0.1,0,0.2,0.1,0.4,0.1l0,0.1c-0.1,0-0.3,0-0.4,0
	c-0.1,0-0.2,0-0.4,0c-0.1,0-0.3,0-0.4,0c-0.1,0-0.3,0-0.4,0L14,118.6z M18.2,115.8l-0.4-2.4h0l-1.3,2.4H18.2z M18.9,110.6
	c0.2-0.2,0.3-0.3,0.4-0.3c0.1,0,0.2-0.1,0.2-0.1c0.1,0,0.2,0,0.3,0.1c0.1,0.1,0.1,0.2,0.1,0.2c0,0.1-0.1,0.2-0.2,0.3
	c-0.1,0.1-0.2,0.1-0.3,0.2l-1.5,0.9h-0.4L18.9,110.6z"/>
<path d="M24.7,117.3c-0.1,0.6-0.2,1.1-0.4,1.5c-0.2,0.4-0.4,0.7-0.6,1c-0.2,0.2-0.5,0.4-0.7,0.5c-0.3,0.1-0.5,0.2-0.7,0.2
	c-0.2,0-0.3,0-0.4,0c-0.1,0-0.2-0.1-0.3-0.2l0.2-0.7c0.1,0.1,0.2,0.1,0.4,0.2c0.2,0,0.3,0.1,0.5,0.1c0.2,0,0.4,0,0.5-0.1
	c0.1-0.1,0.3-0.2,0.4-0.3c0.1-0.1,0.2-0.3,0.2-0.5c0.1-0.2,0.1-0.4,0.1-0.6c0.1-0.4,0.1-0.7,0.2-1c0-0.3,0.1-0.5,0.1-0.8h0
	c-0.1,0.3-0.2,0.6-0.4,0.9c-0.1,0.3-0.3,0.5-0.5,0.7c-0.2,0.2-0.3,0.4-0.5,0.5c-0.2,0.1-0.3,0.2-0.5,0.2c-0.2,0-0.4-0.1-0.6-0.3
	c-0.2-0.2-0.2-0.4-0.2-0.8c0-0.2,0-0.5,0.1-0.8c0.1-0.3,0.2-0.5,0.3-0.8c0.1-0.3,0.3-0.5,0.4-0.8c0.2-0.3,0.3-0.5,0.5-0.7
	c0.2-0.2,0.4-0.4,0.7-0.5c0.2-0.1,0.5-0.2,0.7-0.2c0.1,0,0.3,0,0.4,0c0.1,0,0.2,0.1,0.3,0.1l0.4-0.2L24.7,117.3z M22.2,117.8
	c0,0.1,0,0.2,0.1,0.3c0.1,0.1,0.1,0.1,0.2,0.1c0.1,0,0.2-0.1,0.3-0.2c0.1-0.1,0.3-0.4,0.5-0.6c0.2-0.3,0.3-0.7,0.5-1.1
	c0.2-0.5,0.4-1,0.5-1.6c-0.1,0-0.2,0-0.3,0c-0.1,0-0.2,0-0.3,0c-0.1,0-0.2,0-0.2,0c-0.1,0-0.1,0.1-0.2,0.1c-0.1,0.1-0.1,0.1-0.2,0.3
	c-0.1,0.1-0.2,0.3-0.2,0.4c-0.1,0.2-0.2,0.4-0.2,0.6c-0.1,0.2-0.1,0.4-0.2,0.6c-0.1,0.2-0.1,0.4-0.1,0.6
	C22.3,117.5,22.2,117.7,22.2,117.8z"/>
<path d="M30.3,114.1c-0.1,0.6-0.2,1.2-0.3,1.6c-0.1,0.5-0.1,0.8-0.2,1.1c0,0.3-0.1,0.6-0.1,0.7c0,0.2,0,0.3,0,0.4
	c0,0.1,0,0.2,0.1,0.3c0,0,0.1,0.1,0.1,0.1c0.1,0,0.3-0.1,0.5-0.2l0.1,0.1c-0.1,0.1-0.3,0.3-0.5,0.4c-0.2,0.1-0.4,0.2-0.6,0.2
	c-0.1,0-0.2-0.1-0.3-0.2c-0.1-0.1-0.1-0.3-0.1-0.5c0-0.1,0-0.3,0-0.4l0.2-1.3h0c0,0.1-0.1,0.2-0.1,0.4c-0.1,0.2-0.1,0.3-0.2,0.5
	c-0.1,0.2-0.2,0.4-0.3,0.5c-0.1,0.2-0.2,0.3-0.3,0.5c-0.1,0.1-0.3,0.3-0.4,0.4c-0.2,0.1-0.3,0.1-0.5,0.1c-0.1,0-0.2,0-0.2,0
	c-0.1,0-0.2-0.1-0.2-0.1c-0.1-0.1-0.1-0.1-0.2-0.2c0-0.1-0.1-0.2-0.1-0.4c0-0.1,0-0.2,0-0.3c0-0.1,0-0.3,0.1-0.5l0.5-2.6
	c-0.1,0-0.2,0-0.3,0.1c-0.1,0-0.2,0-0.2,0.1v-0.2l1.4-0.4c0,0.2-0.1,0.4-0.1,0.6c0,0.2-0.1,0.4-0.1,0.6l-0.3,1.8
	c-0.1,0.4-0.1,0.6-0.1,0.8c0,0.1,0,0.2,0.1,0.3c0,0,0.1,0.1,0.2,0.1c0.1,0,0.2-0.1,0.3-0.2c0.1-0.1,0.3-0.4,0.5-0.7
	c0.2-0.3,0.4-0.7,0.5-1.2c0.2-0.5,0.4-1.1,0.5-1.8L30.3,114.1z"/>
<path d="M32.2,118.8c-0.1,0-0.2,0-0.3-0.1c-0.1-0.1-0.2-0.2-0.2-0.3c0-0.1-0.1-0.2-0.1-0.4c0-0.1,0-0.3,0-0.4c0-0.4,0.1-0.8,0.2-1.2
	c0.1-0.4,0.3-0.8,0.6-1.2c0.2-0.3,0.5-0.6,0.9-0.9c0.4-0.2,0.8-0.3,1.2-0.3c0.2,0,0.3,0,0.5,0.1l0.4-0.2l-0.5,2.9
	c0,0.3-0.1,0.5-0.1,0.7c0,0.2-0.1,0.4-0.1,0.4c0,0.1,0,0.2,0,0.2c0,0,0.1,0.1,0.1,0.1c0,0,0.1,0,0.2,0c0.1,0,0.2-0.1,0.3-0.1v0.2
	c-0.1,0.1-0.3,0.2-0.5,0.3c-0.2,0.1-0.3,0.2-0.5,0.2c-0.2,0-0.3-0.1-0.3-0.2c0-0.1-0.1-0.2-0.1-0.4c0-0.1,0-0.2,0-0.3
	c0-0.1,0-0.3,0.1-0.4c0-0.2,0-0.3,0.1-0.5c0-0.2,0-0.3,0.1-0.4h0c-0.1,0.2-0.2,0.4-0.3,0.6c-0.1,0.2-0.3,0.5-0.4,0.7
	c-0.2,0.2-0.3,0.4-0.5,0.6C32.6,118.7,32.4,118.8,32.2,118.8 M32.7,118.2c0.1,0,0.2-0.1,0.3-0.2c0.1-0.1,0.2-0.3,0.4-0.5
	c0.1-0.2,0.3-0.4,0.4-0.7c0.1-0.3,0.2-0.5,0.3-0.8c0.1-0.3,0.2-0.5,0.3-0.8c0.1-0.3,0.1-0.5,0.1-0.6c-0.1,0-0.1,0-0.2,0
	c-0.1,0-0.2,0-0.3,0c-0.2,0-0.4,0.1-0.5,0.2c-0.2,0.1-0.3,0.3-0.4,0.5c-0.1,0.2-0.2,0.4-0.3,0.6c-0.1,0.2-0.2,0.5-0.2,0.7
	c-0.1,0.2-0.1,0.4-0.1,0.7c0,0.2,0,0.4,0,0.5c0,0.1,0,0.1,0,0.2c0,0.1,0,0.1,0,0.2c0,0.1,0,0.1,0.1,0.2
	C32.5,118.2,32.6,118.2,32.7,118.2z"/>
<path d="M101.6,113c0-0.1,0-0.2-0.1-0.3c-0.1-0.1-0.2-0.1-0.4-0.1l0-0.1c0.1,0,0.3,0,0.4,0c0.1,0,0.3,0,0.4,0c0.1,0,0.3,0,0.4,0
	c0.1,0,0.2,0,0.4,0l2.5,4.5h0l0.6-3.5c0-0.2,0-0.3,0-0.4c0-0.1,0-0.2-0.1-0.3c0-0.1-0.1-0.1-0.2-0.2c-0.1,0-0.2-0.1-0.3-0.1l0-0.1
	c0.1,0,0.3,0,0.4,0c0.1,0,0.3,0,0.4,0c0.2,0,0.3,0,0.5,0c0.2,0,0.3,0,0.5,0l0,0.1c-0.2,0-0.3,0.1-0.4,0.1c-0.1,0-0.1,0.1-0.2,0.3
	l-1,5.7H105l-2.9-5.2h0l-0.7,4.2c0,0.2,0,0.3,0,0.4c0,0.1,0,0.2,0.1,0.3c0,0.1,0.1,0.1,0.2,0.2c0.1,0,0.2,0.1,0.3,0.1l0,0.1
	c-0.1,0-0.3,0-0.4,0c-0.1,0-0.3,0-0.4,0c-0.2,0-0.3,0-0.5,0c-0.2,0-0.3,0-0.5,0l0-0.1c0.2,0,0.3-0.1,0.4-0.1c0.1,0,0.1-0.1,0.2-0.3
	L101.6,113z"/>
<path d="M108.2,118.8c-0.1,0-0.2,0-0.3-0.1c-0.1-0.1-0.2-0.2-0.2-0.3c0-0.1-0.1-0.2-0.1-0.4c0-0.1,0-0.3,0-0.4
	c0-0.4,0.1-0.8,0.2-1.2c0.1-0.4,0.3-0.8,0.6-1.2c0.2-0.3,0.5-0.6,0.9-0.9c0.4-0.2,0.8-0.3,1.2-0.3c0.2,0,0.3,0,0.5,0.1l0.4-0.2
	l-0.5,2.9c0,0.3-0.1,0.5-0.1,0.7c0,0.2,0,0.4,0,0.4c0,0.1,0,0.2,0,0.2c0,0,0.1,0.1,0.1,0.1c0,0,0.1,0,0.2,0c0.1,0,0.2-0.1,0.3-0.1
	v0.2c-0.1,0.1-0.3,0.2-0.5,0.3c-0.2,0.1-0.3,0.2-0.5,0.2c-0.2,0-0.3-0.1-0.3-0.2c0-0.1-0.1-0.2-0.1-0.4c0-0.1,0-0.2,0-0.3
	c0-0.1,0-0.3,0.1-0.4c0-0.2,0-0.3,0.1-0.5c0-0.2,0-0.3,0.1-0.4h0c-0.1,0.2-0.2,0.4-0.3,0.6c-0.1,0.2-0.3,0.5-0.4,0.7
	c-0.2,0.2-0.3,0.4-0.5,0.6C108.6,118.7,108.4,118.8,108.2,118.8 M108.6,118.2c0.1,0,0.2-0.1,0.3-0.2c0.1-0.1,0.2-0.3,0.4-0.5
	c0.1-0.2,0.3-0.4,0.4-0.7c0.1-0.3,0.2-0.5,0.3-0.8c0.1-0.3,0.2-0.5,0.3-0.8c0.1-0.3,0.1-0.5,0.1-0.6c0,0-0.1,0-0.2,0
	c-0.1,0-0.2,0-0.3,0c-0.2,0-0.4,0.1-0.5,0.2c-0.2,0.1-0.3,0.3-0.4,0.5c-0.1,0.2-0.2,0.4-0.3,0.6c-0.1,0.2-0.2,0.5-0.2,0.7
	c-0.1,0.2-0.1,0.4-0.1,0.7c0,0.2,0,0.4,0,0.5c0,0.1,0,0.1,0,0.2c0,0.1,0,0.1,0,0.2c0,0.1,0,0.1,0.1,0.2
	C108.5,118.2,108.6,118.2,108.6,118.2z"/>
<path d="M112.6,114.1h0.6l0.2-1.3l0.9-0.4l-0.2,1.7h0.8l0,0.3H114l-0.3,2.4c0,0.1,0,0.2,0,0.3c0,0.1,0,0.2,0,0.3c0,0.1,0,0.2,0,0.3
	c0,0.1,0,0.2,0,0.2c0,0.1,0,0.1,0.1,0.2c0,0.1,0.1,0.1,0.2,0.1c0.1,0,0.2,0,0.4-0.1c0.2-0.1,0.3-0.2,0.5-0.3l0.1,0.2
	c-0.2,0.3-0.5,0.5-0.7,0.6c-0.2,0.2-0.5,0.2-0.7,0.2c-0.2,0-0.4-0.1-0.5-0.2c-0.1-0.2-0.2-0.4-0.2-0.6c0-0.1,0-0.2,0-0.4
	c0-0.2,0.1-0.4,0.1-0.8l0.3-2.4h-0.6L112.6,114.1z"/>
<path d="M119.6,114.1c-0.1,0.6-0.2,1.2-0.3,1.6c-0.1,0.5-0.1,0.8-0.2,1.1c0,0.3-0.1,0.6-0.1,0.7c0,0.2,0,0.3,0,0.4
	c0,0.1,0,0.2,0.1,0.3c0,0,0.1,0.1,0.1,0.1c0.1,0,0.3-0.1,0.5-0.2l0.1,0.1c-0.1,0.1-0.3,0.3-0.5,0.4c-0.2,0.1-0.4,0.2-0.6,0.2
	c-0.1,0-0.2-0.1-0.3-0.2c-0.1-0.1-0.2-0.3-0.2-0.5c0-0.1,0-0.3,0-0.4l0.2-1.3h0c0,0.1-0.1,0.2-0.1,0.4c-0.1,0.2-0.1,0.3-0.2,0.5
	c-0.1,0.2-0.2,0.4-0.3,0.5c-0.1,0.2-0.2,0.3-0.3,0.5c-0.1,0.1-0.3,0.3-0.4,0.4c-0.1,0.1-0.3,0.1-0.5,0.1c-0.1,0-0.2,0-0.2,0
	c-0.1,0-0.1-0.1-0.2-0.1c-0.1-0.1-0.1-0.1-0.2-0.2c0-0.1-0.1-0.2-0.1-0.4c0-0.1,0-0.2,0-0.3c0-0.1,0-0.3,0.1-0.5l0.5-2.6
	c-0.1,0-0.2,0-0.3,0.1c-0.1,0-0.2,0-0.2,0.1v-0.2l1.4-0.4c0,0.2-0.1,0.4-0.1,0.6c0,0.2-0.1,0.4-0.1,0.6l-0.3,1.8
	c-0.1,0.4-0.1,0.6-0.1,0.8c0,0.1,0,0.2,0.1,0.3c0,0,0.1,0.1,0.2,0.1c0.1,0,0.2-0.1,0.3-0.2c0.1-0.1,0.3-0.4,0.5-0.7
	c0.2-0.3,0.4-0.7,0.6-1.2c0.2-0.5,0.4-1.1,0.5-1.8L119.6,114.1z"/>
<path d="M121.6,114.5c-0.2,0-0.3,0.1-0.5,0.1l0-0.2l1.3-0.4l-0.3,2l0,0c0.2-0.4,0.3-0.8,0.5-1c0.1-0.3,0.3-0.5,0.4-0.6
	c0.1-0.1,0.3-0.2,0.4-0.3c0.2-0.1,0.3-0.1,0.6-0.1l-0.1,0.9c-0.1,0-0.1,0-0.2,0h-0.2c-0.2,0-0.4,0.1-0.5,0.2
	c-0.2,0.2-0.3,0.4-0.4,0.6c-0.1,0.3-0.3,0.6-0.4,1c-0.1,0.4-0.2,0.8-0.3,1.2l-0.1,0.7l-0.7,0.1L121.6,114.5z"/>
<path d="M125.2,118.8c-0.1,0-0.2,0-0.3-0.1c-0.1-0.1-0.2-0.2-0.2-0.3c0-0.1-0.1-0.2-0.1-0.4c0-0.1,0-0.3,0-0.4
	c0-0.4,0.1-0.8,0.2-1.2c0.1-0.4,0.3-0.8,0.6-1.2c0.2-0.3,0.5-0.6,0.9-0.9c0.4-0.2,0.8-0.3,1.2-0.3c0.2,0,0.3,0,0.5,0.1l0.4-0.2
	l-0.5,2.9c0,0.3-0.1,0.5-0.1,0.7c0,0.2-0.1,0.4-0.1,0.4c0,0.1,0,0.2,0,0.2c0,0,0.1,0.1,0.1,0.1c0,0,0.1,0,0.2,0
	c0.1,0,0.2-0.1,0.2-0.1v0.2c-0.1,0.1-0.3,0.2-0.5,0.3c-0.2,0.1-0.3,0.2-0.5,0.2c-0.2,0-0.3-0.1-0.3-0.2c0-0.1-0.1-0.2-0.1-0.4
	c0-0.1,0-0.2,0-0.3c0-0.1,0-0.3,0.1-0.4c0-0.2,0-0.3,0.1-0.5c0-0.2,0-0.3,0.1-0.4h0c-0.1,0.2-0.2,0.4-0.3,0.6
	c-0.1,0.2-0.3,0.5-0.4,0.7c-0.2,0.2-0.3,0.4-0.5,0.6C125.6,118.7,125.4,118.8,125.2,118.8 M125.7,118.2c0.1,0,0.2-0.1,0.3-0.2
	c0.1-0.1,0.2-0.3,0.4-0.5c0.1-0.2,0.2-0.4,0.4-0.7c0.1-0.3,0.2-0.5,0.3-0.8c0.1-0.3,0.2-0.5,0.3-0.8c0.1-0.3,0.1-0.5,0.1-0.6
	c0,0-0.1,0-0.2,0c-0.1,0-0.1,0-0.3,0c-0.2,0-0.4,0.1-0.5,0.2c-0.2,0.1-0.3,0.3-0.4,0.5c-0.1,0.2-0.2,0.4-0.3,0.6
	c-0.1,0.2-0.2,0.5-0.2,0.7c-0.1,0.2-0.1,0.4-0.1,0.7c0,0.2,0,0.4,0,0.5c0,0.1,0,0.1,0,0.2c0,0.1,0,0.1,0,0.2c0,0.1,0,0.1,0.1,0.2
	C125.5,118.2,125.6,118.2,125.7,118.2z"/>
<path d="M130.4,117.4c0,0.1,0,0.2,0,0.3c0,0.1,0,0.2,0,0.3c0,0.1,0.1,0.2,0.2,0.2c0.1,0,0.1,0,0.2,0c0.1,0,0.1-0.1,0.2-0.1l0.1,0.1
	c-0.1,0.1-0.1,0.1-0.2,0.2c-0.1,0.1-0.2,0.1-0.3,0.2c-0.1,0.1-0.2,0.1-0.3,0.1c-0.1,0-0.2,0.1-0.2,0.1c-0.1,0-0.3-0.1-0.3-0.1
	c-0.1-0.1-0.1-0.3-0.1-0.5c0-0.1,0-0.3,0-0.5c0-0.2,0-0.3,0.1-0.5l0.7-5.1c-0.1,0-0.2,0-0.3,0.1c-0.1,0-0.2,0-0.2,0.1V112l1.4-0.4
	c0,0.1,0,0.1,0,0.2c0,0.1,0,0.2-0.1,0.4L130.4,117.4z"/>
<path d="M48.6,117.4c-1.7,2.8-2.5,4.5-2.4,5.1c0,0.2,0.9-0.4,0.9-0.3c-0.3,0.6-1.1,0.9-1.4,0.9c-0.3,0-0.6-0.3-0.6-0.7
	c-0.3-2.4,6.2-13.6,5.8-16.2c-0.1-0.9-0.9-1-1.5-1c-4.5,0-10.6,8.7-10.4,9.9c0,0.2,0.2,0.3,0.4,0.3c0.2,0,0.6-0.1,0.8-0.1
	c0,0.2-0.9,0.6-1.2,0.6c-0.5,0-0.9-0.5-1-1c-0.4-3,6.7-10.1,11.5-10.1c1.5,0,2.5,0.9,2.7,2.4c0.3,1.8-1.7,6.2-3.4,9.5
	c3.7-6,7.3-9.3,8.1-9.3c0.5,0,1.4,0.6,1.6,1.3c-0.1-0.1-0.3-0.1-0.4-0.1c-0.6,0-3.7,6.8-4.8,10.9c2.3-6.3,8.8-12.9,9.9-12.9
	c0.5,0,1.4,1,1.6,1.4c-0.2-0.1-0.4-0.1-0.5-0.1c-1.4,0-6.6,9.4-5.9,13.7c0.3,1.8,1,2.5,2.8,2.4c1.5-0.1,3.7-1.3,4.7-2.2
	c-1.6,2-4.1,2.6-4.6,2.7c-0.2,0-0.3,0-0.5,0c-1.7,0-3.1-1.2-3.4-3.4c-0.5-3.6,1.8-9.1,3-10.6c-2.1,1.2-7.2,8.8-6.9,10.6
	c0.1,0.4-1.1-0.3-1.3-1c-0.3-1.9,2.4-9.1,3.4-10.5C53.1,111,50.4,114.5,48.6,117.4"/>
<path d="M61.2,120.4c-0.3-0.1-0.7-0.6-0.8-0.9c-0.2-1.1,1.6-5.1,2.5-6.1c0.1-0.1,0.2-0.1,0.2-0.1c0.4,0,1.1,0.7,1.2,1.2
	c0,0.1-0.1,0-0.2,0c-0.7-0.1-2.2,4.1-2.3,4.9c0.9-0.3,2.9-2.9,3.7-4c0.1-0.1,0.2,0.1,0.2,0.1c-1.1,1.7-3.2,4.8-4.2,4.9
	C61.3,120.4,61.2,120.4,61.2,120.4 M65.2,111.1c0.2,0.2,0.3,0.5,0.2,0.5c0,0-0.2-0.1-0.3,0c-0.3,0.1-0.9,0.9-1,1.2
	c-0.2,0.3-0.6-0.1-0.6-0.4c-0.1-0.5,0.3-1.7,0.7-1.9C64.5,110.5,64.9,110.9,65.2,111.1z"/>
<path d="M69.4,119.4c1-0.3,2.9-2.9,3.8-4c0.1-0.1,0.2,0.1,0.1,0.1c-1.1,1.8-3.3,4.8-4.3,4.8c-0.2,0-0.4-0.2-0.6-0.4
	c-0.2-0.2-0.4-0.5-0.4-0.7c-0.2-1.1,1.3-4.1,2-5c-1.2,0.7-3.2,2.9-4.2,4.4c-0.2,0.2-0.3,0.5-0.5,0.8c-0.3,0.6-0.4,1.1-0.1,1.2
	c-0.5,0.1-0.9-0.5-1.1-1c-0.1-0.1,0-0.6,0.2-1.5c0.3-0.9,0.7-2,1.1-2.8c0.4-0.9,1-1.9,1.4-2.3C66.9,113,67,113,67,113
	c0.4,0,1.1,0.7,1.2,1.2c0,0.1-0.1,0-0.2,0c-0.2,0-0.7,0.8-1.1,1.5c-0.6,1.1-1.2,2.5-1.4,3c0.1-0.3,0.4-0.7,0.7-1
	c1.5-2,4-4.5,4.5-4.5c0.4,0,1,1,0.9,1.2C71.2,114.7,69.3,118.6,69.4,119.4"/>
<path d="M72.9,119.3c0,0.2,0.2,0.4,0.5,0.4c1.2,0,3.7-2.6,5.1-4.1c0,0,0.2,0.1,0.1,0.1c-1,1.3-3.7,4.8-5.8,4.8
	c-0.5,0-1.2-0.7-1.3-1.2c-0.1-0.4,0-0.8,0-1.2c0.2-1.1,0.9-2.2,1.7-3.2c1.1-1.3,2.5-1.8,3.2-1.8c0.2,0,1,0.4,1.1,0.9
	c0.2,1.1-2.5,3.8-4.3,3.9C73.1,118.2,72.9,118.8,72.9,119.3 M73.5,117.4c1.4-0.2,3.6-3.2,3.6-3.9C75.4,114.2,73.8,116.5,73.5,117.4z
	"/>
<path d="M79.8,113.1c0.1-0.1,0.1-0.1,0.2-0.1c0.4,0,1.1,0.7,1.2,1.2c0,0.1-0.1,0-0.2,0c-0.2,0-0.7,0.7-1.1,1.4
	c-0.3,0.7-0.8,1.5-1,2.2c0.7-1.3,2-2.8,3.3-4c0.5-0.5,1-0.8,1.3-0.9c0.2,0,1,0.8,0.9,0.9c-0.3,0.4-1.4,1.8-1.7,3.2
	c0.8-0.1,1.7-0.9,2.6-1.9c0,0,0.1,0,0.1,0c-0.2,0.4-1.8,2.5-3,2.5c-0.3,0-0.9-0.6-0.9-0.9c-0.1-0.5,0.3-1.6,0.6-2.1
	c-1.3,1-2,1.7-2.9,3.1c-0.7,1-1.4,2.6-1,2.8c-0.4,0.1-0.9-0.4-1.1-1c-0.1-0.2,0-0.5,0.1-0.9c0.2-1.1,0.8-2.3,1.3-3.4
	C78.9,114.4,79.4,113.5,79.8,113.1"/>
<path d="M88.2,116.8c-0.4,0.6-3.1,3.7-3.7,3.7c0,0-0.1,0-0.2-0.1c-0.3-0.2-0.8-0.9-0.9-1.2c-0.3-2,2.8-6.1,5.7-6.1
	c0.6,0,1.5,0.3,1.6,1.2c0,0.3-0.1,0.6-0.2,0.9c0,0-0.1,0-0.1,0c0.1-0.2,0.1-0.4,0.1-0.7c-0.1-0.6-0.4-0.8-0.9-0.8
	c-0.9,0.1-2,0.8-2.9,1.9c-1.3,1.5-2.2,3.8-2,3.9c0,0,0.1,0,0.1,0c0.5-0.2,2.5-2.1,3.2-2.9c0.2-0.3,1.1-1.5,1.5-1.7
	c0.3-0.2,1,0.8,1,1.1c-0.1-0.2-1.3,1.8-1.6,3c-0.1,0.3-0.1,0.5-0.1,0.6c1-0.3,2.9-2.9,3.7-3.9c0.1-0.1,0.2,0.1,0.1,0.1
	c-1.1,1.8-3.3,4.9-4.3,4.9c-0.1,0-0.2,0-0.3-0.1c-0.2-0.1-0.6-0.5-0.7-0.9c0-0.2,0-0.4,0-0.7C87.7,118.1,88,117.2,88.2,116.8"/>
<path d="M95.3,108.8c0.4-0.7,0.7-1.3,1.1-1.7c0.2-0.2,0.4-0.4,0.5-0.4c0.9-0.1,1.7,1,1.4,0.8c-0.6-0.3-1.4,1.4-2,2.4
	c-0.5,1-1,2.1-1.6,3.5c-1,2.4-1.9,4.8-2.1,6c0.7,0.1,2.9-2.9,3.7-3.9c0.1-0.1,0.2,0.1,0.1,0.1c-0.6,1-2.9,4.4-3.8,4.8
	c-0.2,0.1-0.4,0-0.5-0.1c-0.1-0.1-0.6-0.5-0.7-0.7c0,0-0.1-0.1-0.1-0.3c-0.1-0.6,0.4-2.4,1.8-5.9C93.8,111.6,94.6,110,95.3,108.8"/>
</svg>
