<?xml version="1.0" standalone="no"?>
<!DOCTYPE svg PUBLIC "-//W3C//DTD SVG 20010904//EN"
 "http://www.w3.org/TR/2001/REC-SVG-20010904/DTD/svg10.dtd">
<svg version="1.0" xmlns="http://www.w3.org/2000/svg"
 width="278.000000pt" height="181.000000pt" viewBox="0 0 278.000000 181.000000"
 preserveAspectRatio="xMidYMid meet">

<g transform="translate(0.000000,181.000000) scale(0.100000,-0.100000)"
fill="#000000" stroke="none">
<path d="M1255 1800 c-445 -70 -766 -444 -767 -894 -1 -419 270 -768 682 -877
121 -32 319 -32 440 0 339 91 594 356 665 691 19 91 19 278 1 367 -72 338
-329 608 -661 693 -93 24 -271 34 -360 20z m510 -321 c73 -27 156 -104 192
-177 l28 -57 0 -335 0 -335 -29 -63 c-37 -79 -114 -152 -191 -181 -52 -20 -77
-21 -375 -21 -298 0 -323 1 -375 21 -73 27 -156 104 -192 177 l-28 57 0 340 0
340 28 57 c35 71 119 150 190 177 48 18 76 20 374 20 302 1 326 0 378 -20z"/>
<path d="M1060 1395 c-60 -19 -122 -73 -151 -132 -24 -47 -24 -52 -24 -358 l0
-310 27 -51 c34 -64 88 -110 152 -129 71 -22 581 -22 652 0 66 19 121 67 150
129 23 50 24 56 24 361 0 305 -1 311 -24 361 -27 59 -82 107 -145 129 -62 21
-593 21 -661 0z m721 -93 c47 -39 16 -122 -46 -122 -13 0 -33 8 -46 18 -47 39
-16 122 46 122 13 0 33 -8 46 -18z m-258 -105 c65 -30 127 -90 159 -155 19
-39 23 -63 23 -137 0 -74 -4 -98 -23 -137 -99 -200 -364 -246 -519 -91 -110
110 -125 295 -33 420 89 121 256 163 393 100z"/>
<path d="M1295 1111 c-77 -36 -135 -124 -135 -204 0 -82 60 -174 134 -208 53
-24 139 -24 192 0 56 25 110 91 125 153 24 103 -31 216 -125 259 -53 24 -139
24 -191 0z"/>
</g>
</svg>
