<svg id="marca" xmlns="http://www.w3.org/2000/svg" viewBox="0 0 3298.58 998.63"><path d="M1126.82,463.7v-404h85.74l135.65,314.17H1350L1483.87,59.68h84.56v404h-66.36L1507.36,156H1505L1373.47,463.7h-51.09L1190.84,161.28h-2.36l4.7,302.42Zm798,0V177.13h61.07v41.69h1.76A95.84,95.84,0,0,1,2000,198.27,89.89,89.89,0,0,1,2017,183a72.78,72.78,0,0,1,21.13-9.39,87.52,87.52,0,0,1,25.26-3.53,75.88,75.88,0,0,1,9.39.59,79.6,79.6,0,0,1,9.4,1.76,56.08,56.08,0,0,1,10.57,3.53,70.64,70.64,0,0,1,10.57,5.87l-16.44,56.37a100.82,100.82,0,0,0-9.4-4.11q-4.69-1.76-8.81-2.93a67.43,67.43,0,0,0-17-2.35q-15.86,0-28.18,7a60.84,60.84,0,0,0-20,20,100.06,100.06,0,0,0-11.75,29.36,167.94,167.94,0,0,0-3.52,35.24V463.7ZM1127.84,972V568h178.52q32.88,0,57.55,7T1405,596.15A79.9,79.9,0,0,1,1429.09,629q8.22,19.38,8.22,44.63a90.5,90.5,0,0,1-4.11,27.6,79.08,79.08,0,0,1-31.71,43.45,94.33,94.33,0,0,1-27.6,12.92V760a109.41,109.41,0,0,1,32.89,11.75,75.29,75.29,0,0,1,25.25,20,84.68,84.68,0,0,1,15.85,27.6,90.77,90.77,0,0,1,5.88,32.89,130,130,0,0,1-8.81,48.15,106.39,106.39,0,0,1-26.43,38.17q-17,15.86-42.87,24.67Q1350.4,972,1318.1,972Zm185-182H1194.2V917.37h118.62q18.79,0,32.3-4.7a62.91,62.91,0,0,0,23.49-13.5,55.79,55.79,0,0,0,13.5-21.14,75.14,75.14,0,0,0,4.7-27,62.8,62.8,0,0,0-4.7-24.66A52.63,52.63,0,0,0,1368,807q-8.8-8.22-22.9-12.33Q1331,789.95,1312.82,789.94Zm-11.16-167.36H1194.2V736.5h106.87q17,0,30-4.11a62,62,0,0,0,22.32-12.92,49.68,49.68,0,0,0,12.92-19.38A61.39,61.39,0,0,0,1371,676a53.82,53.82,0,0,0-4.11-21.73,37.57,37.57,0,0,0-12.34-17q-8.22-7.05-21.73-10.57Q1319.87,622.58,1301.66,622.58Zm187.12-15.86V542.13h68.12v64.59ZM1491.13,972V685.42h63.42V972ZM2075.3,828.7q0-34.07,10.58-61.66,11.14-28.18,30.53-48.15a129.69,129.69,0,0,1,46.39-29.95q27-10.58,58.73-10.57,33.46,0,60.48,10.57a118.06,118.06,0,0,1,45.81,29.95q19.38,19.38,29.36,47.56,10.58,27.6,10.57,62.25,0,34.06-10.57,62.25a134.3,134.3,0,0,1-30.54,47.56,129.58,129.58,0,0,1-46.39,30.54q-27,10-58.72,10-32.9,0-59.9-10a133.54,133.54,0,0,1-46.39-29.95,138.47,138.47,0,0,1-29.95-47.57Q2075.3,863.35,2075.3,828.7Zm65.78,0q0,22.32,5.87,40.52a101.29,101.29,0,0,0,16.44,31.71,73.22,73.22,0,0,0,25.25,20,77.5,77.5,0,0,0,32.89,7.05,73.66,73.66,0,0,0,32.3-7.05,71.67,71.67,0,0,0,25.83-20,101.52,101.52,0,0,0,16.45-31.71Q2302,851,2302,828.7q0-22.91-5.87-41.11-5.3-18.78-16.45-31.71a67.35,67.35,0,0,0-25.25-19.38,75.11,75.11,0,0,0-32.88-7,77.64,77.64,0,0,0-32.89,7,70.62,70.62,0,0,0-25.25,20.56A94,94,0,0,0,2147,788.18Q2141.07,806.39,2141.08,828.7Zm261.4-222V542.13h68.12v64.59ZM2404.83,972V685.42h63.42V972Z" transform="translate(-23.01 -16.86)"/><path d="M1608.3,321q0-33.47,10.57-61.07,10.58-28.19,29.36-48.15a128.31,128.31,0,0,1,45.22-31.13,152.12,152.12,0,0,1,57-10.57q30,0,54.62,9.4a114.77,114.77,0,0,1,42.27,27.6q18.21,17.61,27.61,44,9.39,25.85,9.39,58.73V331H1673.49a139.36,139.36,0,0,0,7,37.58A99.21,99.21,0,0,0,1697,396.76a74.89,74.89,0,0,0,24.67,18.2,80.22,80.22,0,0,0,31.12,5.87,85.9,85.9,0,0,0,25.84-3.52,67.6,67.6,0,0,0,20-9.39,54.47,54.47,0,0,0,12.92-14.1,60.21,60.21,0,0,0,7.63-17h62.25a95.52,95.52,0,0,1-13.51,36.41,111.08,111.08,0,0,1-27.6,29.95q-16.44,12.92-39.35,20.55a161,161,0,0,1-48.74,7.05q-34.05,0-61.07-10a122.37,122.37,0,0,1-45.22-29.37q-18.2-19.38-28.18-47Q1608.3,356.23,1608.3,321Zm142.11-101.59a73.59,73.59,0,0,0-26.42,4.7,67.09,67.09,0,0,0-21.15,13.51,85.81,85.81,0,0,0-16.44,21.72,125,125,0,0,0-10,28.78h143.29q-1.77-17.62-7.64-30.54A58.89,58.89,0,0,0,1798,236.44a53.91,53.91,0,0,0-20.56-12.92A81.56,81.56,0,0,0,1750.41,219.41Zm360.51,101q0-34.07,10.57-61.66,10.56-28.18,29.36-48.16a125.24,125.24,0,0,1,45.22-29.95q26.41-10.56,57.54-10.57,28.79,0,51.68,8.23,23.49,7.62,39.93,21.72a99.35,99.35,0,0,1,26.43,33.48A135.42,135.42,0,0,1,2384,275.2h-62.83a67.49,67.49,0,0,0-7.05-21.14,57.71,57.71,0,0,0-13.51-17,56.14,56.14,0,0,0-20-11.75,81.66,81.66,0,0,0-27-4.11,67.26,67.26,0,0,0-30.53,7.05,72.34,72.34,0,0,0-24.67,20.55q-10.56,12.93-16.44,31.71a143,143,0,0,0-5.28,39.94,149.31,149.31,0,0,0,5.28,40.52,101.82,101.82,0,0,0,16.44,31.71,75,75,0,0,0,24.67,20,67.26,67.26,0,0,0,30.53,7.05,81.66,81.66,0,0,0,27-4.11,60.6,60.6,0,0,0,20.55-11.16,56.89,56.89,0,0,0,12.92-17.62,96,96,0,0,0,7.05-21.14H2384a135.56,135.56,0,0,1-12.33,41.7,102.74,102.74,0,0,1-25.84,33.47q-16.44,14.08-39.93,22.32-22.9,7.62-52.27,7.63-32.88,0-59.31-10a128.79,128.79,0,0,1-45.21-29.95q-18.8-19.38-28.78-47.57Q2110.92,355.06,2110.92,320.42Zm298.89,69.88q0-18.21,5.29-32.3a70.31,70.31,0,0,1,17-25.25q11.74-11.16,29.95-18.21,18.21-7.64,43.46-11.74l55.78-9.4q11.16-1.75,18.2-3.52a76.42,76.42,0,0,0,11.16-3.52,15.7,15.7,0,0,0,5.88-5.29,13.48,13.48,0,0,0,1.76-7.05,73.86,73.86,0,0,0-3.53-23.48,39.13,39.13,0,0,0-10-17.62,41.25,41.25,0,0,0-17.62-11.16q-10.56-4.11-25.25-4.11a83.73,83.73,0,0,0-25.25,3.52,49.64,49.64,0,0,0-18.2,10.57,43.16,43.16,0,0,0-11.75,15.86,68.83,68.83,0,0,0-5.28,20.55H2421q1.17-22.3,10-39.93a100.8,100.8,0,0,1,24.66-31.12,101.94,101.94,0,0,1,37.58-20,161.12,161.12,0,0,1,48.74-7q30,0,52.27,7,22.89,7.05,37.58,20.55a79.4,79.4,0,0,1,22.31,32.89q7.64,19.38,7.64,44.63V463.7h-60.49V427.88h-2.93a80.75,80.75,0,0,1-15.86,18.79,83.18,83.18,0,0,1-20.55,12.92,124,124,0,0,1-25.84,8.22,138,138,0,0,1-29.36,2.94q-22.9,0-41.11-5.87-18.2-5.29-30.53-15.86a75.62,75.62,0,0,1-18.8-25.84A80.89,80.89,0,0,1,2409.81,390.3Zm188.51-44V319.83a64.42,64.42,0,0,1-5.29,4.7,37,37,0,0,1-6.46,4.11q-3.53,1.17-8.22,2.35-4.11,1.17-9.39,2.35l-49.33,8.22a75,75,0,0,0-21.14,5.87,48.71,48.71,0,0,0-14.68,8.81,37.54,37.54,0,0,0-8.22,12.33,44.63,44.63,0,0,0-2.35,15.27,45.57,45.57,0,0,0,2.93,16.44,41.17,41.17,0,0,0,9.4,12.33,46.4,46.4,0,0,0,15.27,7.64,71,71,0,0,0,21.14,2.93,86.71,86.71,0,0,0,28.77-4.7,70,70,0,0,0,24.67-14.09,68.28,68.28,0,0,0,16.44-24.66Q2598.31,365,2598.32,346.26Zm102.19-23.49q0-34.65,10-62.84,10.58-28.77,28.77-48.74a124.45,124.45,0,0,1,42.29-30.54,127.16,127.16,0,0,1,51.67-10.57,138,138,0,0,1,29.36,2.94,84.82,84.82,0,0,1,24.67,9.4,72.05,72.05,0,0,1,20.55,15.26A85.37,85.37,0,0,1,2923.66,220H2926q-1.17-12.92-1.76-27t-1.17-26.43V33.85h63.42V463.7H2926V420.83h-2.34a78.59,78.59,0,0,1-16.45,22.32A88.5,88.5,0,0,1,2885.49,459a114.63,114.63,0,0,1-27,8.81,146.43,146.43,0,0,1-29.95,2.94,134.58,134.58,0,0,1-50.5-9.4,120.07,120.07,0,0,1-41.1-28.77q-17-19.38-27-47Q2700.51,357.42,2700.51,322.77Zm65.77,0q0,22.89,5.87,41.1t16.44,30.54a71.53,71.53,0,0,0,24.67,18.79,72.33,72.33,0,0,0,87.49-20,94.22,94.22,0,0,0,16.45-31.12,139.54,139.54,0,0,0,5.87-41.69q0-22.91-5.87-41.11-5.88-18.8-16.45-31.71a67.35,67.35,0,0,0-25.25-19.38,68.56,68.56,0,0,0-31.12-7.05,71,71,0,0,0-31.12,7.05,72.34,72.34,0,0,0-24.67,20.55q-10.56,12.93-16.44,32.3A139.56,139.56,0,0,0,2766.28,322.77Zm262.85-2.35q0-34.07,10.57-61.66,11.16-28.18,30.53-48.16a129.86,129.86,0,0,1,46.4-29.95q27-10.56,58.72-10.57,33.48,0,60.48,10.57a118.1,118.1,0,0,1,45.81,29.95Q3301,230,3311,258.17q10.58,27.6,10.6,62.25,0,34.05-10.6,62.24a134.18,134.18,0,0,1-30.53,47.57,129.36,129.36,0,0,1-46.4,30.54q-27,10-58.71,10-32.88,0-59.9-10a133.77,133.77,0,0,1-46.39-29.95,138.57,138.57,0,0,1-29.95-47.57Q3029.14,355.06,3029.13,320.42Zm65.77,0q0,22.31,5.87,40.52a101.82,101.82,0,0,0,16.44,31.71,73.25,73.25,0,0,0,25.26,20,77.48,77.48,0,0,0,32.88,7.05,73.63,73.63,0,0,0,32.3-7.05,71.55,71.55,0,0,0,25.82-20,101.86,101.86,0,0,0,16.46-31.71q5.87-18.21,5.87-40.52,0-22.91-5.87-41.11-5.31-18.8-16.46-31.71a67.29,67.29,0,0,0-25.23-19.38,75,75,0,0,0-32.89-7.05,77.48,77.48,0,0,0-32.88,7.05,70.72,70.72,0,0,0-25.26,20.55,94.54,94.54,0,0,0-16.44,31.13Q3094.91,298.09,3094.9,320.42Zm-1460,560V734.74h-54V685.42h54V598.5h63.42v86.92h73.41v49.32h-73.41V876.85a96.47,96.47,0,0,0,1.77,20,34.32,34.32,0,0,0,7,12.92,29.3,29.3,0,0,0,12.34,7,64.89,64.89,0,0,0,18.79,2.34h33.47V972h-44q-24.66,0-42.29-5.29t-28.77-16.44q-11.16-11.16-16.44-28.19Q1634.94,904.46,1634.93,880.38Zm149.59-51.68q0-34.07,10.57-61.66,10.56-28.18,29.36-48.15a125.11,125.11,0,0,1,45.22-29.95q26.43-10.58,57.55-10.57,28.77,0,51.67,8.22,23.49,7.63,39.94,21.73a99.19,99.19,0,0,1,26.42,33.47,135.31,135.31,0,0,1,12.33,41.69h-62.83a67.57,67.57,0,0,0-7-21.14,57.81,57.81,0,0,0-13.5-17,56.17,56.17,0,0,0-20-11.74,81.6,81.6,0,0,0-27-4.11,67.42,67.42,0,0,0-30.54,7A72.23,72.23,0,0,0,1872,757.06q-10.57,12.91-16.45,31.71a142.88,142.88,0,0,0-5.28,39.93,149.26,149.26,0,0,0,5.28,40.52A101.52,101.52,0,0,0,1872,900.93a75,75,0,0,0,24.66,20,67.3,67.3,0,0,0,30.54,7.05,81.6,81.6,0,0,0,27-4.11,60.6,60.6,0,0,0,20.55-11.16,57,57,0,0,0,12.92-17.61,96.36,96.36,0,0,0,7-21.14h62.83a135.31,135.31,0,0,1-12.33,41.69,102.37,102.37,0,0,1-25.84,33.47q-16.44,14.1-39.93,22.32-22.9,7.64-52.26,7.63-32.9,0-59.31-10a128.61,128.61,0,0,1-45.22-29.95q-18.8-19.38-28.78-47.57Q1784.52,863.35,1784.52,828.7ZM2519.28,972V685.42h61.07v41.69h2.35a82.17,82.17,0,0,1,34.64-36.41,84.82,84.82,0,0,1,24.67-9.4,138.66,138.66,0,0,1,29.36-2.93,131,131,0,0,1,41.69,6.46,89.2,89.2,0,0,1,34.06,20.55Q2761.81,719.46,2770,743q8.8,22.9,8.8,55.2V972h-63.42V806.38q0-21.14-4.11-35.82T2699,747.08a49.7,49.7,0,0,0-19.38-12.93,72.68,72.68,0,0,0-25.25-4.11,62.22,62.22,0,0,0-28.19,6.46,63,63,0,0,0-22.9,18.21q-10,11.74-15.27,29.36-5.28,17-5.28,38.17V972Z" transform="translate(-23.01 -16.86)"/><path d="M395.42,38.82a164,164,0,0,1,164,0L849.8,206.5a164,164,0,0,1,82,142V683.84a164,164,0,0,1-82,142L559.38,993.52a164,164,0,0,1-164,0L105,825.84a164,164,0,0,1-82-142V348.5a164,164,0,0,1,82-142Z" transform="translate(-23.01 -16.86)"/></svg>