<?xml version="1.0" encoding="utf-8"?>
<!-- Generator: Adobe Illustrator 23.0.1, SVG Export Plug-In . SVG Version: 6.00 Build 0)  -->
<svg version="1.1" id="Layer_1" xmlns="http://www.w3.org/2000/svg" xmlns:xlink="http://www.w3.org/1999/xlink" x="0px" y="0px"
	 viewBox="0 0 333.7 225.23" style="enable-background:new 0 0 333.7 225.23;" xml:space="preserve">
<style type="text/css">
	.st0{fill:#FFFFFF;}
</style>
<rect class="st0" width="333.7" height="225.53"/>
<g>
	<g>
		<path d="M31.8,22.12c-0.5-0.66-1.18-1.05-2.04-1.16c-2.13-0.3-5.34,1.22-9.84,4.66c-1.82,1.39-4.31,3.3-6.9,6
			c-0.77,0.79-1.51,1.67-2.16,2.43c-0.46,0.57-0.88,1.04-1.19,1.37l0.19,0.18c-0.41,0.59-1.09,1.49-1.69,2.33
			C6.28,40.48,3.95,43.63,3.3,45c-1.62,3.46-2.62,7.69-2.99,12.52c-0.33,4.41,0.6,8.1,2.81,10.97c2.59,3.42,6.18,4.96,10.61,4.58
			c2.51-0.22,4.73-1,6.67-2.23c-0.65,5.47-1.83,10.43-3.78,12.77c-0.71,0.84-1.08,0.73-1.41,0.67c-0.82-0.22-1.67-0.1-2.39,0.34
			c-0.74,0.43-1.27,1.13-1.48,1.94c-0.2,0.83-0.08,1.68,0.36,2.41c0.44,0.73,1.12,1.25,1.95,1.47c1.98,0.49,5.75,0.65,8.76-4
			c6.05-9.35,5.98-37.06,3.07-40.74c-0.54-0.66-1.3-1.07-2.13-1.17c-0.86-0.11-1.69,0.13-2.35,0.67c-0.67,0.52-1.08,1.28-1.17,2.12
			c-0.08,0.7,0.06,1.38,0.43,1.98c0.37,0.86,0.66,3.48,0.76,6.96c-0.16,4.07-1.39,7.01-3.66,8.75c-1.17,0.9-2.56,1.34-4.21,1.32
			c-2.23,0.03-3.81-0.58-4.79-1.89c-1.06-1.39-1.57-3.69-1.48-6.82c0.26-7.44,3.01-13.78,8.19-18.86c0.83-0.8,1.5-1.59,2.15-2.34
			c0.23-0.26,0.48-0.54,0.71-0.8c0.45-0.34,1.15-0.95,2.33-2.05c1.88-1.73,4.39-4.03,5.8-5.14c0.98,0.35,2.34,0.39,3.95-0.82
			c0.91-0.7,1.57-1.57,1.97-2.55C32.58,23.58,32.21,22.66,31.8,22.12z"/>
		<g>
			<path d="M35.34,47.41c-0.34,0.17-1.07,0.43-2.87,0.9c-1.18,0.32-1.27,0.91-1.21,1.39c0.04,0.2,0.18,0.85,0.94,2.95
				c0.6,1.7,1.04,3.41,1.31,5.09c0.56,3.11,1.51,5.3,2.88,6.52c2.06,2.26,4.44,3.19,7.25,2.82c0.53-0.08,1.14-0.21,1.75-0.39
				c3.17-2.03,4.37-5.7,3.66-11.16l-1.78-8.54c-0.42-0.91-1.13-1.64-2.13-2.16c-1.02-0.54-2.02-0.75-3.05-0.6
				c-1.16,0.15-1.98,0.7-2.51,1.66c1.87,3.76,2.9,6.48,3.13,8.3c0.28,2.1-0.05,4.15-0.97,6.07c-0.06,0.14-0.19,0.23-0.34,0.26
				c-0.16,0.02-0.31-0.03-0.4-0.13c-1-0.97-1.64-1.85-1.98-2.68c-0.01-0.03-0.02-0.07-0.03-0.1l-0.62-4.51
				c-0.11-0.77-0.15-1.21-0.16-1.5c0,0,0,0.01,0,0.02C37.85,49.26,36.91,47.87,35.34,47.41z"/>
			<path d="M66.68,34.49c-2.66-1.8-5.78-2.51-9.24-2.04c-6.94,0.92-6.6,3.51-6.5,4.36c0.04,0.2,0.13,0.48,0.33,0.84
				c0.7,1.34,1.47,2.01,2.33,2c0.07,0,0.55-0.06,2.64-1.2c1.6-0.87,2.64-1.32,3.19-1.4c0.87-0.12,1.72,0.11,2.54,0.69
				c0.01,0.01,0.04,0.02,0.06,0.05c2.36,2.4,2.83,2.96,2.95,3.14c1.09,1.32,1.7,2.69,1.83,4.08c0.01,0.16-0.06,0.31-0.17,0.41
				c-0.94,0.75-2.98,1.71-6.25,2.99c-2.43,0.93-4.17,2.21-5.13,3.78c-0.68,2.76-0.91,5.07-0.66,6.91c0.54,4,2.47,6.26,5.9,6.87
				c0.93,0.09,1.87,0.08,2.8-0.05c4.69-0.62,7.92-2.7,9.85-6.36c1.05-3.2,1.33-6.7,0.85-10.42C73.18,42.89,70.73,37.98,66.68,34.49z
				 M66.86,56.59c-0.01,0.02-0.01,0.04-0.02,0.07c-0.34,1.78-1.18,3.21-2.48,4.25c-0.03,0.02-0.05,0.04-0.06,0.05
				c-0.45,0.24-0.87,0.39-1.26,0.44c-0.64,0.08-1.51-0.09-2.09-1.38l-0.93-2.09c-0.04-0.08-0.05-0.21-0.02-0.31
				c1-3.71,2.41-5.77,4.31-6.33c0.02,0,0.05-0.01,0.06-0.01l1.21-0.16c0.66-0.08,1.19,0.16,1.5,0.67c0.05,0.09,0.07,0.19,0.07,0.29
				C67.01,53.78,66.92,55.27,66.86,56.59z"/>
			<path d="M88.66,39.31c-1.9,0.27-4.66,0.77-8.21,1.56c-1.95,1.16-2.76,2.83-2.47,5.08c0.04,0.39,0.28,1.39,1.11,3.94
				c0.67,2.06,1.05,3.42,1.14,4.07c0.33,0.72,0.49,1.71,0.49,2.99c0.03,1.46,0.08,2.37,0.13,2.77c0.19,1.47,1.1,2.33,2.81,2.66
				c2.4-0.19,3.76-0.82,4.07-1.85c-0.41-1.28-0.91-3.81-1.49-7.56c-0.57-3.85-1.08-6.39-1.48-7.55c-0.07-0.18-0.02-0.39,0.14-0.51
				c1.13-1,2.49-1.63,3.99-1.81c0.89-0.14,1.84-0.12,2.9,0.02c5.08,0.79,6.29,0.84,6.57,0.8c1-0.13,1.97-0.52,2.88-1.11l-0.27-2.08
				C97.83,39.11,93.69,38.65,88.66,39.31z"/>
			<path d="M118.58,27.67c-2.67-1.82-5.78-2.51-9.26-2.06c-6.94,0.92-6.59,3.52-6.49,4.37c0.02,0.15,0.09,0.41,0.32,0.86
				c0.71,1.33,1.49,1.99,2.33,1.98c0.1,0,0.62-0.08,2.66-1.2c2.14-1.15,2.84-1.36,3.18-1.41c0.88-0.09,1.72,0.13,2.52,0.69
				c0.03,0.02,0.06,0.04,0.06,0.05c2.38,2.39,2.84,2.95,2.97,3.14c1.08,1.35,1.69,2.73,1.82,4.1c0.02,0.15-0.05,0.29-0.17,0.39
				c-0.94,0.75-2.97,1.73-6.25,3c-2.43,0.91-4.14,2.19-5.12,3.77c-0.69,2.82-0.9,5.06-0.66,6.9c0.53,4.02,2.46,6.28,5.89,6.88
				c0.95,0.08,1.87,0.07,2.8-0.04c4.63-0.62,7.95-2.76,9.86-6.36c1.04-3.2,1.32-6.71,0.84-10.43
				C125.05,36.07,122.6,31.15,118.58,27.67z M118.73,49.76c0,0.03,0,0.04,0,0.06c-0.35,1.79-1.17,3.21-2.48,4.25
				c-0.03,0.01-0.04,0.04-0.06,0.05c-0.46,0.24-0.88,0.4-1.26,0.43c-0.62,0.1-1.5-0.08-2.09-1.36l-0.93-2.09
				c-0.03-0.1-0.05-0.2-0.02-0.32c0.97-3.64,2.43-5.77,4.31-6.32c0.01-0.02,0.04-0.03,0.07-0.03l1.2-0.15
				c0.65-0.08,1.18,0.14,1.49,0.67c0.03,0.09,0.06,0.18,0.06,0.28C118.92,46.74,118.8,48.24,118.73,49.76z"/>
			<path d="M141.64,52.79c-0.09-0.4-0.18-0.78-0.23-1.18c-0.16-1.27-0.06-2.67,0.3-4.19c0.49-2.01,0.8-3.28,0.96-3.8
				c1.06-3.92,2.13-5.88,3.39-6.18c0.19-0.04,0.38,0.03,0.5,0.19c0.53,0.81,1.87,3.73,2.9,6.03c1.49,3.37,2.59,5.48,3.26,6.29
				c1.34,1.74,3.06,2.77,5.02,3.1c0.38-0.41,0.82-0.91,1.35-1.56c0.47-0.58,0.65-1.11,0.6-1.61c-2.29-1.52-4.11-4.23-5.42-8.1
				c-2.59-7.82-3.05-9-3.15-9.17c-1.54-2.81-3.92-4.23-7.26-4.34c-1.26,0.9-2.34,2.29-3.19,4.17l-2.27,5.02
				c-0.08,0.19-0.28,0.3-0.49,0.27c-0.45-0.06-1.33-0.37-3.69-2.33c-1.27-1.02-2.48-1.35-3.7-0.99c-1.54,0.44-2.17,1.4-1.96,3.05
				c0.35,2.68,1.58,5.81,3.64,9.31c1.87,3.26,3.74,5.6,5.51,6.93c0.31-0.03,0.93-0.1,2.14-0.27
				C140.63,53.34,141.23,53.12,141.64,52.79z"/>
			<path d="M161.26,14.54c2-0.79,3.69-2.68,5.01-5.6c0.62-1.44,1.66-3.13,3.04-5.02c1.2-1.69,1.27-2.27,1.27-2.42
				c-0.02-0.07-0.25-0.44-1.69-1.5c-2.45,0.33-4.39,1.77-5.91,4.39c-1.77,3.4-2.99,5.81-3.76,7.39c-0.06,0.22-0.08,0.45-0.05,0.71
				C159.34,13.77,160.02,14.43,161.26,14.54z"/>
			<path d="M174.52,20.27c-2.66-1.82-5.77-2.51-9.26-2.05c-3.07,0.41-5.1,1.2-5.99,2.35c-0.44,0.58-0.61,1.22-0.5,2.01
				c0.02,0.12,0.08,0.39,0.33,0.85c0.7,1.34,1.47,2.02,2.32,1.98c0.08,0,0.57-0.05,2.66-1.18c1.58-0.88,2.63-1.34,3.18-1.4
				c0.86-0.13,1.72,0.11,2.53,0.68c0.02,0.01,0.04,0.02,0.07,0.05c2.35,2.39,2.84,2.96,2.95,3.14c1.08,1.33,1.7,2.71,1.83,4.08
				c0.01,0.16-0.06,0.31-0.18,0.41c-0.92,0.74-2.97,1.73-6.24,2.99c-2.44,0.95-4.16,2.22-5.13,3.79c-0.67,2.75-0.9,5.07-0.65,6.89
				c0.52,4.01,2.46,6.26,5.88,6.89c0.96,0.08,1.89,0.05,2.82-0.06c4.63-0.61,7.95-2.74,9.86-6.34c1.03-3.2,1.31-6.71,0.82-10.44
				C181.01,28.66,178.55,23.75,174.52,20.27z M174.69,42.37c-0.01,0.02-0.01,0.03-0.01,0.06c-0.35,1.78-1.18,3.21-2.49,4.26
				c-0.04,0.03-0.05,0.03-0.08,0.05c-0.45,0.24-0.87,0.38-1.24,0.42c-0.62,0.09-1.5-0.08-2.09-1.37l-0.91-2.08
				c-0.06-0.11-0.06-0.2-0.04-0.32c1-3.71,2.41-5.77,4.32-6.32c0.02-0.01,0.05-0.01,0.07-0.01l1.18-0.18
				c0.66-0.07,1.2,0.17,1.5,0.68c0.04,0.07,0.07,0.17,0.07,0.27C174.86,39.52,174.76,41.01,174.69,42.37z"/>
		</g>
	</g>
</g>
<g>
	<path d="M328.83,78.86c-1.95-4.36-4.77-8.31-8.27-11.56c-12.49-11.22-32.48-11.64-45.89-1.84c-8.51-3.54-17.89-3.43-26.32,0.15
		c-2.26-4.5-5.86-8.18-10.31-10.68c-6.71-3.77-14.71-4.49-22.19-3.27c-6.91,1.12-13.38,3.79-18.82,8.22
		c-2.72,2.21-5.05,4.86-7.07,7.71c-1.05,1.47-1.99,3.03-2.87,4.61c-0.65,1.17-1.36,2.53-2.6,3.16c-2.7,1.36-5.17,2.85-7.41,4.86
		c-8.12-0.57-16.25,0.4-24.09,2.61c-11.49-10.43-27.8-14.05-43.02-12.78c-8.07,0.67-16.13,2.19-24.15,3.29
		c-6.11,0.84-12.23,1.62-18.35,2.44c-7.07,0.96-14.21,2.23-20.54,5.68c-5.24,2.86-9.59,7.17-12.28,12.51
		c-3.05,6.06-3.93,12.94-2.7,19.6c1.28,6.94,5.5,12.87,11.18,16.9c0.08,9.09,0.22,18.21-0.52,27.29c-0.59,7.2-1.43,14.85-4.13,21.62
		c-1.2,2.99-2.89,5.69-3.89,8.79c-1.21,3.75-1.74,7.72-1.53,11.66c0.33,6.18,2.84,12,7.03,16.52c3.82,4.12,8.97,6.83,14.38,8.19
		c8.39,2.1,16.59,0.47,24.81-1.49c7.37-1.76,14.71-3.67,21.99-5.75c6.52-1.85,12.65-4.43,17.46-9.36
		c5.72-5.87,8.12-13.98,7.05-21.86c8.33,6.05,18.44,9.39,28.81,10c7.39,0.44,14.8-0.75,21.74-3.28c6.25-2.28,12.24-5.75,17.71-9.61
		c11.11,6.07,24.39,5.57,36.1,1.15c11.35,11.67,28.81,15.87,44.6,12.75c16.73-3.31,30.21-15.28,40.08-28.63
		c9.81-13.27,15.69-29,17.85-45.32c1.04-7.85,1.28-15.88,0.76-23.79C332.99,92.34,331.71,85.29,328.83,78.86z"/>
	<path class="st0" d="M135.41,97.97c8.03,6.57,10.17,19.87,4.83,32.58c-9.2,21.88-29.1,23.95-44.65,26.87
		c-1.05,16.23,0.71,23.23,4.37,27.36c3.65,4.12,2.86,8.39-4.27,10.5c-6.34,1.87-19.39,5.34-29.06,7.48
		c-13.24,2.93-9.47-7.57-7.76-10.6c7.16-12.68,8.48-36.71,8.34-49.54c-0.13-12.83,0.61-27.88-3.21-28.2
		c-3.81-0.33-9.45-0.82-8.48-7.57c0.98-6.75,7.31-7.82,18.78-9.3c10.42-1.34,19.74-2.64,36.66-5.03
		C118.92,91.41,128.59,92.39,135.41,97.97z M97.55,109.27c-2.31,1.76-2.81,9.3-3.09,16.4c-0.28,7.1-0.13,16.39,3.63,16.97
		c2.78,0.43,12.88-0.98,13.06-20.07c0.05-5.93-1.06-10.15-3.05-12.24C104.83,106.9,99.1,108.08,97.55,109.27z"/>
	<path class="st0" d="M198.11,130.59c-1.31,20.78-11.6,32.05-29.3,40.51c-17.7,8.46-42.51-3.19-37.96-30.26
		c4.54-27.06,20.43-35.41,36.1-37.97C185.38,99.85,199.42,109.82,198.11,130.59z M164.33,114.29c-4.77,1-7.46,5.01-6.05,14.52
		c1.41,9.51,0.14,15.36-1.1,20.34c-2.07,8.33,5.18,14.03,10.93,8.26c3.45-3.46,4.23-15.68,3.97-27.1
		C171.82,118.9,170.66,112.97,164.33,114.29z"/>
	<path class="st0" d="M221.6,73.55c-5.45,0.75-9.48,2.72-13.24,9.55c-3.77,6.83-7.91,10.24-13.06,12.58
		c-4.02,1.83-3.1,8.36-0.62,8.04c3.74-0.49,5.78-1.1,5.93,4.67c0.23,9.28-1.79,34.15-0.61,44.83c1.18,10.68,9.46,16.87,25.39,7.99
		c15.93-8.88,17.54-14.95,17.6-18c0.06-3.05-1.36-8.94-4.74-6.25c-3.39,2.69-7.36,6.24-10.08,3.35c-2.72-2.89-2.42-9.83-0.77-20.1
		c1.65-10.27,10.5-21.96,15.74-26.15c0.69-0.55-0.14-6.33-5.61-4.86c-5.47,1.47-11.29,1.73-11.26-3.54
		c0.03-5.27,0.26-7.43,0.53-9.02C227.08,75.05,226.48,72.88,221.6,73.55z"/>
	<path class="st0" d="M252.6,90.18c-8.47,6.48-14.66,13.06-15.7,19.07c-1.04,6.02,6.31,8.17,7.88,6.39
		c1.58-1.78,4.13-7.36,8.41-3.62c4.28,3.74,14.51,14.29,18.82,30.7c4.32,16.42,0.55,20.45-4.11,20.78c-2.85,0.2-3.59-1.9-2.71-4.62
		c0.71-2.2,1.29-11.64-7.8-12.98c-9.09-1.35-17.08,7.91-12.68,18.81c3.89,9.61,22.22,18.72,41,1.02c18.78-17.7,24-38.98,23.92-59.63
		c-0.08-20.65-6.12-26.71-14.54-25.07c-8.42,1.64-10.13,8.52-6.75,12.2c0.9,0.98,1.94,1.37,3.18,2.44c1.27,1.1,2.45,3.18,3.13,4.75
		c3.99,9.22,3.3,24.4-2.75,26.91c-3.02,1.25-4.67-4.53-8.7-14.8c-4.03-10.27-12.44-24.7-18.83-27.08
		C260.97,84.18,257.47,86.47,252.6,90.18z"/>
</g>
</svg>
