<?xml version="1.0" encoding="utf-8"?>
<!-- Generator: Adobe Illustrator 25.2.1, SVG Export Plug-In . SVG Version: 6.00 Build 0)  -->
<svg version="1.1" id="Layer_1" xmlns="http://www.w3.org/2000/svg" xmlns:xlink="http://www.w3.org/1999/xlink" x="0px" y="0px"
	 viewBox="0 0 200.6 167.2" style="enable-background:new 0 0 200.6 167.2;" xml:space="preserve">
<style type="text/css">
	.st0{fill:#231F20;}
</style>
<polygon class="st0" points="112.9,61.9 87.6,27.4 69,27.4 69,167.2 87.6,167.2 87.6,56.9 112.9,90 112.9,116.8 112.9,167.2 
	131.6,167.2 131.6,27.4 112.9,27.4 "/>
<polygon class="st0" points="6,43.3 25.3,43.3 25.3,167.2 44,167.2 44,43.3 62.6,43.3 62.6,27.4 0,27.4 "/>
<polygon class="st0" points="194.6,43.3 175.3,43.3 175.3,167.2 156.6,167.2 156.6,43.3 137.9,43.3 137.9,27.4 200.6,27.4 "/>
<path class="st0" d="M138.2,6.4c0.1-1-0.6-1.8-1.6-2l0,0c0.9-0.3,1.5-1.2,1.5-2.2V2.1c0-0.5,0-1.9-3.2-1.9h-5.3V8h1.6V5.1h3.4
	c1.3,0,1.9,0.6,1.9,1.9v0.7c0,0.1,0,0.2,0,0.2h1.7c0-0.2,0-0.4,0-0.7L138.2,6.4z M134.9,3.9h-3.6V1.4h3.6c1.3,0,1.6,0.7,1.6,1.2
	S136.2,3.9,134.9,3.9z"/>
<path class="st0" d="M118.9,0.2h-3.9V8h4c3.3,0,5-1.3,5-3.8V3.8C123.9,2.5,123.3,0.2,118.9,0.2z M122.2,4.1c0,1.8-1.1,2.7-3.4,2.7
	h-2.2V1.4h2.2C121.1,1.4,122.2,2.3,122.2,4.1L122.2,4.1z"/>
<rect x="144.1" y="0.2" class="st0" width="1.6" height="7.7"/>
<polygon class="st0" points="159.2,6.2 153.8,0.2 151.9,0.2 151.9,8 153.5,8 153.5,2 159,8 160.8,8 160.8,0.2 159.2,0.2 "/>
<polygon class="st0" points="170.1,3.7 174.1,0.2 172,0.2 168.5,3.3 168.5,0.2 166.9,0.2 166.9,8 168.5,8 168.5,4.5 172.1,8 
	174.4,8 "/>
<path class="st0" d="M99.6,4.1c-0.3-0.2-0.6-0.3-0.9-0.4l-1-0.3l-0.8-0.2c-0.2-0.1-0.4-0.1-0.6-0.2c-0.1-0.1-0.3-0.2-0.4-0.3
	c-0.1-0.1-0.1-0.3-0.1-0.5c0-0.2,0.1-0.4,0.2-0.5c0.1-0.1,0.3-0.2,0.4-0.3c0.2-0.1,0.4-0.1,0.6-0.2c0.2,0,0.4-0.1,0.6-0.1
	c0.3,0,0.7,0.1,1,0.2c0.3,0.1,0.6,0.3,0.8,0.5l1.1-1c-0.4-0.3-0.9-0.5-1.3-0.6c-0.5-0.1-1-0.2-1.5-0.2c-0.4,0-0.9,0-1.3,0.1
	c-0.4,0.1-0.8,0.2-1.2,0.4c-0.3,0.2-0.6,0.4-0.8,0.7c-0.2,0.3-0.3,0.6-0.3,1c0,0.3,0.1,0.6,0.2,0.9c0.1,0.2,0.3,0.5,0.6,0.6
	C95,4,95.3,4.1,95.6,4.2c0.3,0.1,0.6,0.2,0.9,0.3l0.9,0.2c0.2,0.1,0.5,0.2,0.7,0.3c0.2,0.1,0.3,0.2,0.5,0.3c0.1,0.1,0.2,0.3,0.2,0.5
	c0,0.2,0,0.4-0.2,0.5c-0.1,0.1-0.3,0.3-0.4,0.4c-0.2,0.1-0.4,0.2-0.6,0.2C97.4,7,97.2,7,97,7c-0.4,0-0.8-0.1-1.2-0.2
	c-0.4-0.1-0.7-0.3-1-0.6l-1.2,0.9C94,7.5,94.5,7.8,95,7.9c0.6,0.2,1.2,0.3,1.9,0.3c0.5,0,0.9-0.1,1.4-0.2C98.7,8,99,7.8,99.4,7.6
	c0.3-0.2,0.6-0.5,0.8-0.8c0.2-0.3,0.3-0.7,0.3-1.1c0-0.4-0.1-0.7-0.3-1C100,4.5,99.8,4.3,99.6,4.1z"/>
<path class="st0" d="M76.9,6.4c0.1-1-0.6-1.8-1.6-2l0,0c0.9-0.3,1.5-1.2,1.5-2.2V2.1c0-0.5,0-1.9-3.2-1.9h-5.3V8h1.6V5.1h3.4
	c1.3,0,1.9,0.6,1.9,1.9v0.7c0,0.1,0,0.2,0,0.2h1.7c0-0.2,0-0.4,0-0.7L76.9,6.4z M73.5,3.9h-3.6V1.4h3.6c1.3,0,1.5,0.7,1.5,1.2
	S74.8,3.9,73.5,3.9z"/>
<path class="st0" d="M44.2,0.2h-4.8V8h1.5V5.1h2.9c0.9,0.1,1.8-0.1,2.6-0.5c0.8-0.5,0.7-1.5,0.7-2.3V2.1C47.1,1.6,47.1,0.2,44.2,0.2
	z M44.2,3.9h-3.2V1.4h3.2c1.2,0,1.4,0.7,1.4,1.2S45.4,3.9,44.2,3.9z"/>
<path class="st0" d="M32.1,4.1c-0.3-0.2-0.6-0.3-0.9-0.4l-1-0.3l-0.8-0.2C29.2,3.2,29,3.1,28.9,3c-0.1-0.1-0.3-0.2-0.4-0.3
	c-0.1-0.1-0.1-0.3-0.1-0.5c0-0.2,0.1-0.3,0.2-0.5c0.1-0.1,0.3-0.2,0.4-0.3c0.2-0.1,0.4-0.1,0.5-0.2c0.2,0,0.4-0.1,0.6-0.1
	c0.3,0,0.7,0.1,1,0.2c0.3,0.1,0.6,0.3,0.8,0.5l1.1-1c-0.4-0.3-0.9-0.5-1.3-0.6c-0.5-0.1-1-0.2-1.5-0.2c-0.4,0-0.9,0-1.3,0.1
	c-0.4,0.1-0.8,0.2-1.1,0.4C27.5,0.7,27.2,1,27,1.3c-0.2,0.3-0.3,0.6-0.3,1c0,0.3,0.1,0.6,0.2,0.9c0.1,0.3,0.3,0.5,0.6,0.6
	C27.7,4,28,4.1,28.2,4.2c0.3,0.1,0.6,0.2,0.9,0.3L30,4.7c0.2,0.1,0.5,0.1,0.7,0.3c0.2,0.1,0.3,0.2,0.5,0.3c0.1,0.1,0.2,0.3,0.2,0.5
	c0,0.2,0,0.4-0.2,0.5c-0.1,0.2-0.3,0.3-0.4,0.4C30.6,6.9,30.4,7,30.2,7c-0.2,0-0.4,0.1-0.6,0.1c-0.4,0-0.8-0.1-1.2-0.3
	c-0.4-0.1-0.7-0.3-1-0.6l-1.2,0.9c0.4,0.4,0.9,0.7,1.5,0.8c0.6,0.2,1.2,0.3,1.9,0.3c0.5,0,0.9-0.1,1.4-0.2C31.3,8,31.6,7.8,32,7.6
	c0.3-0.2,0.6-0.5,0.8-0.8c0.2-0.3,0.3-0.7,0.3-1.1c0-0.4-0.1-0.7-0.3-1C32.6,4.5,32.4,4.3,32.1,4.1z"/>
<path class="st0" d="M61.1,1.1c-0.5-0.4-1.1-0.6-1.7-0.8C58.7,0.1,58,0,57.3,0c-0.7,0-1.4,0.1-2.1,0.3c-0.6,0.2-1.2,0.5-1.7,0.8
	c-0.5,0.3-0.8,0.8-1.1,1.3c-0.3,0.5-0.4,1.1-0.4,1.7c0,0.6,0.1,1.2,0.4,1.7c0.3,0.5,0.6,0.9,1.1,1.3C54,7.5,54.6,7.8,55.2,8
	c0.7,0.2,1.4,0.3,2.1,0.3c0.7,0,1.4-0.1,2.1-0.3c0.6-0.2,1.2-0.5,1.7-0.9c0.5-0.3,0.8-0.8,1.1-1.3c0.3-0.5,0.4-1.1,0.4-1.7
	c0-0.6-0.1-1.2-0.4-1.7C61.9,1.9,61.6,1.5,61.1,1.1z M60.5,5.2c-0.2,0.3-0.4,0.7-0.7,0.9c-0.3,0.3-0.7,0.5-1.1,0.6
	C58.2,6.9,57.8,7,57.3,7c-0.5,0-0.9-0.1-1.4-0.2c-0.4-0.1-0.8-0.3-1.1-0.6c-0.3-0.2-0.5-0.6-0.7-0.9C54,4.9,54,4.5,54,4.1
	C54,3.7,54,3.3,54.2,3c0.2-0.3,0.4-0.6,0.7-0.9c0.3-0.3,0.7-0.5,1.1-0.6c0.9-0.3,1.9-0.3,2.8,0c0.4,0.1,0.8,0.3,1.1,0.6
	c0.3,0.2,0.5,0.6,0.7,0.9c0.2,0.4,0.2,0.7,0.2,1.1C60.7,4.5,60.6,4.9,60.5,5.2z"/>
<polygon class="st0" points="81,1.4 84,1.4 84,8 85.8,8 85.8,1.4 88.8,1.4 88.8,0.2 81,0.2 "/>
</svg>
