<?xml version="1.0" encoding="utf-8"?>
<!-- Generator: Adobe Illustrator 25.0.1, SVG Export Plug-In . SVG Version: 6.00 Build 0)  -->
<svg version="1.1"
	 id="svg2" xmlns:cc="http://creativecommons.org/ns#" xmlns:dc="http://purl.org/dc/elements/1.1/" xmlns:inkscape="http://www.inkscape.org/namespaces/inkscape" xmlns:rdf="http://www.w3.org/1999/02/22-rdf-syntax-ns#" xmlns:sodipodi="http://sodipodi.sourceforge.net/DTD/sodipodi-0.dtd" xmlns:svg="http://www.w3.org/2000/svg"
	 xmlns="http://www.w3.org/2000/svg" xmlns:xlink="http://www.w3.org/1999/xlink" x="0px" y="0px" viewBox="0 0 562 169"
	 style="enable-background:new 0 0 562 169;" xml:space="preserve">
<style type="text/css">
	.st0{clip-path:url(#SVGID_2_);}
</style>
<sodipodi:namedview  bordercolor="#666666" borderopacity="1" gridtolerance="10" guidetolerance="10" id="namedview4" inkscape:current-layer="g10" inkscape:cx="124.67696" inkscape:cy="388.39674" inkscape:pageopacity="0" inkscape:pageshadow="2" inkscape:window-height="837" inkscape:window-maximized="1" inkscape:window-width="1600" inkscape:window-x="-8" inkscape:window-y="-8" inkscape:zoom="0.42050376" objecttolerance="10" pagecolor="#ffffff" showgrid="false">
	</sodipodi:namedview>
<g id="g10" transform="matrix(1.3333333,0,0,-1.3333333,0,699.99998)" inkscape:groupmode="layer" inkscape:label="Relato_Integrado_2016_ENG">
	
		<g id="g1022" transform="matrix(3.7910338,0,0,3.7910338,-2150.8979,-1515.6158)" inkscape:export-filename="G:\Users\suitedoalex\sites\totvs-logo-4.png" inkscape:export-xdpi="69.520424" inkscape:export-ydpi="69.520424">
		<g>
			<defs>
				<rect id="SVGID_1_" x="-1622.6" y="-1154.6" width="4011.9" height="3008.9"/>
			</defs>
			<clipPath id="SVGID_2_">
				<use xlink:href="#SVGID_1_"  style="overflow:visible;"/>
			</clipPath>
			<g id="g1024" class="st0">
				<g id="g1030" transform="translate(602.6173,471.3838)">
					<path id="path1032" inkscape:connector-curvature="0" d="M-13.5,52.2c-0.6,0.5-5.6,1.9-9.8,2.9c0-3.2,0.2-6.7,0.6-7.3
						c0.6-0.5,5.6-1.9,9.8-2.9C-12.8,48.1-13,51.6-13.5,52.2"/>
				</g>
				<g id="g1034" transform="translate(598.0391,485.1024)">
					<path id="path1036" inkscape:connector-curvature="0" d="M-13.5,52.2c-8.9,0-16.1-7.2-16.1-16.1s7.2-16.1,16.1-16.1
						c8.9,0,16.1,7.2,16.1,16.1S-4.6,52.2-13.5,52.2 M-2.6,30.2c-0.4-0.1-2.8,0.3-5.7,1c0-2.8-0.2-5.3-0.6-5.7
						c-1-0.4-14.4,3-15.4,3.9c-0.8,1.1-0.8,12.2,0,13c0.4,0.1,2.8-0.3,5.7-1c0,2.8,0.2,5.3,0.6,5.7c1,0.4,14.4-3,15.4-3.9
						C-1.8,42-1.8,30.9-2.6,30.2"/>
				</g>
				<g id="g1038" transform="translate(641.2208,478.1394)">
					<path id="path1040" inkscape:connector-curvature="0" d="M-13.5,52.2c-3.9,0-7-2.1-7-7.6v-2.8c0-5.5,3.1-7.6,7-7.6
						c3.9,0,7,2.1,7,7.6v2.8C-6.4,50.1-9.5,52.2-13.5,52.2 M-10.5,41.8c0-2.8-0.9-4.1-2.9-4.1c-2,0-2.9,1.2-2.9,4.1v2.8
						c0,2.8,0.9,4.1,2.9,4.1c2,0,2.9-1.2,2.9-4.1V41.8z"/>
				</g>
				<g id="g1042" transform="translate(632.7773,477.9258)">
					<path id="path1044" inkscape:connector-curvature="0" d="M-13.5,52.2h-11.8c-0.3,0-0.5-0.2-0.5-0.5v-2.4c0-0.3,0.2-0.5,0.5-0.5
						h3.9V35.1c0-0.3,0.2-0.5,0.5-0.5h3.1c0.3,0,0.5,0.2,0.5,0.5v13.8h3.8c0.3,0,0.5,0.2,0.5,0.5v2.4C-13,52-13.2,52.2-13.5,52.2"/>
				</g>
				<g id="g1046" transform="translate(661.4056,477.9258)">
					<path id="path1048" inkscape:connector-curvature="0" d="M-13.5,52.2h-11.8c-0.3,0-0.5-0.2-0.5-0.5v-2.4c0-0.3,0.2-0.5,0.5-0.5
						h3.9V35.1c0-0.3,0.2-0.5,0.5-0.5h3.1c0.3,0,0.5,0.2,0.5,0.5v13.8h3.8c0.3,0,0.5,0.2,0.5,0.5v2.4C-13,52-13.2,52.2-13.5,52.2"/>
				</g>
				<g id="g1050" transform="translate(677.7014,477.9258)">
					<path id="path1052" inkscape:connector-curvature="0" d="M-13.5,52.2h-3.3c-0.2,0-0.4-0.2-0.4-0.4l-3-13.7
						c0-0.3-0.1-0.4-0.3-0.4c-0.2,0-0.3,0.1-0.3,0.4l-3,13.7c0,0.2-0.2,0.4-0.5,0.4h-3.3c-0.2,0-0.4-0.2-0.4-0.4c0,0,0-0.1,0-0.1
						l3.5-14.7c0.5-2.3,2.3-2.6,3.9-2.6c1.6,0,3.4,0.4,3.9,2.6l3.5,14.7c0,0,0,0.1,0,0.1C-13,52.1-13.2,52.2-13.5,52.2"/>
				</g>
				<g id="g1054" transform="translate(688.0415,470.0984)">
					<path id="path1056" inkscape:connector-curvature="0" d="M-13.5,52.2l-3,1.6c-1.3,0.7-1.6,1-1.6,1.7c0,0.9,0.5,1.3,1.9,1.3
						c1.6,0,4.4-0.2,5-0.3h0c0.3,0,0.4,0.2,0.4,0.4v2.4c0,0.3-0.2,0.4-0.4,0.4c-0.9,0.2-3.3,0.5-5,0.5c-4.6,0-6.1-2-6.1-4.6
						c0-1.7,0.6-3.2,2.8-4.5l3.3-1.9c1.2-0.7,1.6-1.1,1.6-1.8c0-1.1-0.5-1.7-2.1-1.7c-0.9,0-3.5,0.2-4.5,0.3h-0.1
						c-0.2,0-0.4-0.1-0.4-0.4v-2.3c0-0.3,0.2-0.4,0.5-0.5c1.2-0.3,2.6-0.5,4.5-0.5c4.8,0,6.5,2.7,6.5,5.2
						C-10.2,49.3-11,50.9-13.5,52.2"/>
				</g>
			</g>
		</g>
	</g>
</g>
</svg>
