<?xml version="1.0" standalone="no"?>
<!DOCTYPE svg PUBLIC "-//W3C//DTD SVG 20010904//EN"
 "http://www.w3.org/TR/2001/REC-SVG-20010904/DTD/svg10.dtd">
<svg version="1.0" xmlns="http://www.w3.org/2000/svg"
 width="225.000000pt" height="225.000000pt" viewBox="0 0 225.000000 225.000000"
 preserveAspectRatio="xMidYMid meet">

<g transform="translate(0.000000,225.000000) scale(0.100000,-0.100000)"
fill="#000000" stroke="none">
<path d="M1005 1960 c-340 -53 -607 -293 -696 -625 -30 -112 -30 -307 0 -420
132 -497 666 -764 1143 -571 92 38 165 85 250 165 436 408 319 1127 -225 1382
-130 61 -333 90 -472 69z m299 -322 c36 -124 99 -197 195 -225 l61 -18 0 -87
0 -88 -35 0 c-56 0 -137 36 -180 80 l-40 41 -5 -258 c-5 -246 -6 -260 -29
-305 -98 -199 -362 -246 -514 -92 -22 22 -51 62 -65 89 -23 43 -27 62 -27 140
0 78 4 97 27 141 51 98 145 161 266 180 l42 7 0 -80 0 -80 -38 -7 c-84 -13
-142 -81 -142 -164 0 -53 20 -93 63 -126 78 -60 192 -37 242 48 l25 43 0 386
0 387 75 0 c52 0 77 -4 79 -12z"/>
</g>
</svg>
