<?xml version="1.0" standalone="no"?>
<!DOCTYPE svg PUBLIC "-//W3C//DTD SVG 20010904//EN"
 "http://www.w3.org/TR/2001/REC-SVG-20010904/DTD/svg10.dtd">
<svg version="1.0" xmlns="http://www.w3.org/2000/svg"
 width="225.000000pt" height="225.000000pt" viewBox="0 0 225.000000 225.000000"
 preserveAspectRatio="xMidYMid meet">

<g transform="translate(0.000000,225.000000) scale(0.100000,-0.100000)"
fill="#000000" stroke="none">
<path d="M985 2234 c-195 -29 -374 -102 -520 -212 -236 -176 -391 -426 -441
-715 -23 -130 -15 -328 19 -459 80 -307 278 -561 550 -708 360 -194 785 -180
1135 36 97 60 271 233 337 333 136 208 203 482 177 722 -30 265 -138 493 -322
679 -145 147 -315 244 -518 297 -77 20 -127 26 -242 28 -80 2 -158 1 -175 -1z
m633 -449 c31 -14 71 -40 88 -56 l31 -30 79 26 c44 14 94 35 113 46 18 11 36
18 38 15 7 -6 -36 -87 -65 -121 -14 -16 -39 -40 -56 -53 l-31 -23 40 7 c22 4
64 15 94 26 30 10 56 16 59 14 8 -8 -34 -59 -102 -124 -61 -59 -66 -67 -66
-107 0 -137 -48 -331 -116 -470 -51 -105 -151 -243 -226 -311 -125 -112 -297
-202 -463 -240 -121 -28 -380 -26 -491 4 -119 32 -294 110 -294 130 0 4 42 8
93 8 52 1 121 9 157 19 75 20 190 73 238 108 l32 24 -50 6 c-27 3 -69 15 -92
25 -62 27 -142 104 -173 165 l-26 52 71 3 c72 3 91 15 42 27 -79 19 -185 123
-216 212 -20 57 -31 133 -18 133 5 0 25 -6 43 -14 19 -7 52 -17 73 -21 l39 -7
-32 27 c-109 92 -152 270 -100 410 l21 56 91 -88 c104 -100 223 -178 342 -224
82 -32 236 -69 290 -69 l30 0 -3 60 c-5 77 26 178 71 240 100 135 292 185 445
115z"/>
</g>
</svg>
